<?xml version="1.0" encoding="UTF-8"?>
<svg version="1.1" xmlns="http://www.w3.org/2000/svg" width="13529" height="5142">
<path d="M0 0 C2.57522352 -0.0136382 5.1504252 -0.03207456 7.72558454 -0.0548031 C13.29015115 -0.09627328 18.853564 -0.09796878 24.4182089 -0.07212732 C32.74860095 -0.03364015 41.07799982 -0.0594468 49.40835399 -0.09674884 C63.61354383 -0.15849845 77.81834035 -0.16856451 92.023633 -0.14970303 C106.40451046 -0.13077719 120.78508502 -0.1358378 135.16593838 -0.16965961 C136.07679421 -0.17178388 136.98765004 -0.17390814 137.92610756 -0.17609677 C141.63637143 -0.18482209 145.34663487 -0.19370683 149.05689787 -0.20279621 C186.65806773 -0.29479305 224.25904215 -0.315581 261.86030866 -0.30740671 C267.05047551 -0.30628929 272.24064237 -0.30525119 277.43080926 -0.30429578 C278.97732501 -0.30400604 278.97732501 -0.30400604 280.5550835 -0.30371044 C303.43698877 -0.29984293 326.31886436 -0.31684414 349.20075851 -0.33786758 C354.43074597 -0.34266131 359.66073357 -0.34730578 364.89072115 -0.35196954 C366.98986327 -0.35384482 369.08900538 -0.35572047 371.1881475 -0.35759649 C372.2286839 -0.35852551 373.2692203 -0.35945453 374.34128811 -0.3604117 C376.44607838 -0.36229381 378.55086865 -0.36418151 380.65565892 -0.36607479 C440.35777823 -0.41971806 500.05987345 -0.45070035 559.7620163 -0.43225861 C560.86686362 -0.43192295 561.97171094 -0.4315873 563.11003848 -0.43124148 C575.42926464 -0.42749074 587.74849069 -0.42344685 600.06771673 -0.41931418 C603.43924812 -0.41818641 606.81077951 -0.41705864 610.1823109 -0.41593106 C612.43185458 -0.41517545 614.68139826 -0.41441448 616.93094193 -0.41364815 C688.03993882 -0.38947408 759.14848999 -0.44155518 830.25739193 -0.55835247 C848.17092981 -0.58774674 866.084468 -0.61687821 883.99800873 -0.6444931 C885.65273942 -0.64704597 885.65273942 -0.64704597 887.34089902 -0.64965041 C921.36847453 -0.70182179 955.39601306 -0.73180127 989.42362785 -0.73889732 C991.02731362 -0.7392353 991.02731362 -0.7392353 992.66339709 -0.73958011 C1016.13902573 -0.7443042 1039.61465162 -0.74359545 1063.09027996 -0.73791012 C1071.49137507 -0.73591835 1079.89247026 -0.73430165 1088.29356548 -0.73285617 C1090.38337165 -0.73249121 1092.47317782 -0.73210486 1094.56298399 -0.73169702 C1127.79040504 -0.72538654 1161.01749805 -0.7708452 1194.24483515 -0.84217431 C1228.66770544 -0.91562852 1263.0900166 -0.92226642 1297.51290471 -0.85386423 C1301.21934404 -0.84675927 1304.92578379 -0.83994489 1308.63222408 -0.83335972 C1309.54178035 -0.83171828 1310.45133662 -0.83007684 1311.3884552 -0.82838566 C1325.71645416 -0.80414606 1340.04363254 -0.83978674 1354.37149402 -0.90113405 C1368.50439522 -0.96036216 1382.63606483 -0.95401353 1396.76891158 -0.88073274 C1404.31107531 -0.84334449 1411.85056911 -0.83286553 1419.39254005 -0.90655813 C1452.84763897 -1.21689397 1480.43423059 1.11037613 1510.30599641 17.23751489 C1515.22931721 19.89148416 1520.29558573 22.16481731 1525.40659443 24.42977072 C1530.44173933 26.66381067 1535.40823954 29.04246251 1540.3845892 31.40380573 C1541.79828793 32.06944538 1541.79828793 32.06944538 1543.24054623 32.7485323 C1570.76070915 45.71408683 1598.28471473 59.03686576 1624.80451107 73.95556355 C1627.63146201 75.54237969 1630.46840813 77.11038077 1633.3064642 78.67724323 C1648.84765844 87.28302081 1664.16360324 96.24490573 1679.3845892 105.40380573 C1680.43694759 106.03480183 1681.48930599 106.66579792 1682.57355404 107.31591511 C1699.67526948 117.59665356 1716.29033617 128.53563325 1732.83902645 139.67559528 C1737.28705545 142.66975176 1741.74970526 145.64080316 1746.22247982 148.59789753 C1755.41129834 154.67916055 1764.4229427 160.99356864 1773.3845892 167.40380573 C1774.09550716 167.9099239 1774.80642513 168.41604206 1775.53888607 168.93749714 C1788.02383779 177.83008067 1800.22964257 187.06680557 1812.3845892 196.40380573 C1813.6265819 197.35458107 1814.86874671 198.30513169 1816.1111517 199.25536823 C1819.21011057 201.62813055 1822.29943417 204.01310992 1825.3845892 206.40380573 C1825.9203558 206.81872272 1826.4561224 207.23363972 1827.00812435 207.66112995 C1839.88082143 217.64824428 1852.44740258 228.00936401 1864.85138607 238.57177448 C1868.17739249 241.39992585 1871.54799319 244.16416345 1874.9470892 246.90380573 C1880.0177847 251.02836563 1884.81651399 255.39997172 1889.60724545 259.84130573 C1892.49689593 262.50742489 1895.43967924 265.09978927 1898.4080267 267.67724323 C1906.53045744 274.77233096 1914.45642729 282.09321082 1922.3845892 289.40380573 C1922.96370052 289.93634968 1923.54281185 290.46889362 1924.13947201 291.01757526 C1932.01730502 298.27035159 1939.70614022 305.66888273 1947.24005795 313.27856159 C1950.8681388 316.93023267 1954.56610839 320.40960461 1958.4939642 323.73974323 C1963.90577314 328.50302962 1968.93290153 333.6943261 1973.63068295 339.15771198 C1977.66175257 343.80006153 1982.00250471 348.09524615 1986.3845892 352.40380573 C1991.32596695 357.26227446 1996.12488265 362.1511518 2000.6424017 367.40771198 C2003.78267933 371.0056534 2007.09440161 374.44343603 2010.3845892 377.90380573 C2014.97044146 382.72685725 2019.47449379 387.59352821 2023.83478451 392.62206745 C2025.7748376 394.85245615 2027.76509222 397.03458586 2029.7595892 399.21630573 C2033.70830364 403.58666257 2037.43086129 408.10683652 2041.1345892 412.68505573 C2043.31960489 415.32528303 2045.5763031 417.87110294 2047.8845892 420.40380573 C2052.11009001 425.05112935 2056.0864633 429.86368398 2060.03595638 434.74609089 C2062.14137206 437.33402942 2064.27005173 439.90264797 2066.39581966 442.47387409 C2076.28029214 454.43625614 2085.99653971 466.50556313 2095.38873959 478.859128 C2098.76441721 483.29737973 2102.17733519 487.70338011 2105.61969662 492.09008503 C2112.57034047 500.95602596 2119.23629636 509.9933179 2125.78009701 519.1625948 C2127.90744357 522.13414706 2130.05568882 525.09029403 2132.20343685 528.04711628 C2134.94274404 531.82388958 2137.66569834 535.61231737 2140.3845892 539.40380573 C2140.88410091 540.09941608 2141.38361263 540.79502644 2141.89826107 541.51171589 C2159.82855929 566.57099808 2176.83692092 592.41432871 2193.3845892 618.40380573 C2193.93485775 619.26699421 2194.4851263 620.13018269 2195.05206966 621.01952839 C2205.49841043 637.45583619 2215.45717733 654.17016941 2225.34503841 670.94579792 C2227.01036562 673.77096641 2228.68187134 676.59239278 2230.35724545 679.41161823 C2246.9914709 707.44620678 2262.73447317 736.05528849 2277.64069271 765.04321003 C2279.35311682 768.34315654 2281.08810734 771.63029042 2282.82744503 774.91608906 C2288.76906361 786.14936196 2294.51898506 797.4728415 2300.1970892 808.84130573 C2300.67736568 809.80213062 2301.15764217 810.76295551 2301.6524725 811.75289631 C2308.94712885 826.3611024 2316.04245611 841.02995037 2322.78888607 855.90038776 C2324.52873019 859.72027196 2326.29126217 863.52919389 2328.0564642 867.33739948 C2359.49225296 935.27658148 2387.31798558 1004.87781163 2412.3845892 1075.40380573 C2412.69678402 1076.28193928 2413.00897884 1077.16007282 2413.33063412 1078.06481647 C2447.52195417 1174.34690073 2476.6422523 1272.21625559 2506.52448177 1392.89953327 C2507.31656581 1396.12666305 2508.11239067 1399.35283758 2508.90997982 1402.57861042 C2528.42417477 1481.59262229 2544.41543862 1561.60298587 2615.3845892 2086.40380573 C2615.44974224 2087.15790226 2615.51489529 2087.91199879 2615.58202267 2088.68894672 C2623.43668202 2179.72235637 2628.94015541 2270.94970237 2636.5095892 2468.09130573 C2636.52923607 2468.78539791 2636.54888294 2469.47949009 2636.56912518 2470.19461536 C2636.87226862 2480.930303 2637.13599076 2491.66673475 2637.3845892 2502.40380573 C2637.40514374 2503.2885591 2637.42569828 2504.17331246 2637.44687569 2505.08487654 C2638.2273253 2538.9437086 2638.54821645 2572.7874399 2638.55184627 2606.65479851 C2638.55257377 2610.50312973 2638.55473875 2614.3514577 2638.55734348 2618.19978809 C2638.5660482 2631.1151574 2638.57077441 2644.03051832 2638.57001301 2656.94589058 C2638.56997305 2657.63115785 2638.5699331 2658.31642513 2638.56989193 2659.02245808 C2638.56985105 2659.70865053 2638.56981017 2660.39484298 2638.56976805 2661.10182914 C2638.56939029 2671.43183082 2638.57721082 2681.76180126 2638.59039974 2692.09179401 C2638.67186881 2757.17335862 2638.4355888 2822.21270521 2636.44955492 2887.2688303 C2636.38672161 2889.33372786 2636.32485189 2891.39865171 2636.26336193 2893.46358967 C2635.81029897 2908.63077484 2635.29100933 2923.79438688 2634.69294643 2938.95653629 C2634.56654178 2942.16982467 2634.44241133 2945.38319559 2634.31861019 2948.59658527 C2630.67043711 3042.93955702 2625.01286435 3137.18153714 2516.1471014 3883.19549274 C2515.3564899 3886.52203511 2514.57094683 3889.84974337 2513.78644466 3893.17773151 C2495.10700146 3972.34388279 2473.77957154 4050.80302935 2449.3845892 4128.40380573 C2449.07537533 4129.39011982 2448.76616146 4130.37643391 2448.44757748 4131.3926363 C2427.0834866 4199.53667193 2403.67851037 4266.99845826 2377.3845892 4333.40380573 C2377.01738766 4334.33158833 2376.65018612 4335.25937092 2376.27185726 4336.21526814 C2363.8682381 4367.51785521 2350.83596446 4398.53776465 2337.3845892 4429.40380573 C2337.01055965 4430.26207966 2336.63653011 4431.12035358 2336.25116634 4432.00463581 C2326.63016421 4454.05613214 2316.58632411 4475.89206132 2306.23822689 4497.61120319 C2305.00061565 4500.21013371 2303.76720648 4502.8110568 2302.5330267 4505.41161823 C2300.35006608 4510.00198644 2298.15218908 4514.58499405 2295.94562435 4519.16405964 C2294.79798705 4521.54584678 2293.65190804 4523.92835163 2292.50714779 4526.31152058 C2283.1104346 4545.86371426 2273.50017075 4565.27181324 2263.40015316 4584.47161579 C2262.32875999 4586.51002516 2261.26001696 4588.54980827 2260.1917181 4590.58984089 C2251.88024052 4606.45462962 2243.47838379 4622.24500025 2234.5799017 4637.79052448 C2231.65250421 4642.90846054 2228.80216881 4648.0667251 2225.95831966 4653.23144245 C2218.07435195 4667.53605796 2209.85102522 4681.61324924 2201.45221615 4695.62072468 C2199.97723262 4698.08414617 2198.50781153 4700.55086758 2197.03822994 4703.01751423 C2187.35186017 4719.27242224 2177.51116424 4735.41811287 2167.3845892 4751.40380573 C2166.75375423 4752.40154011 2166.12291927 4753.39927448 2165.4729681 4754.42724323 C2128.91126754 4812.17654571 2089.47444812 4868.20010725 2047.1580267 4921.88036823 C2045.3436928 4924.18224881 2043.53650328 4926.48941202 2041.7361517 4928.80224323 C2032.18023351 4941.06153823 2022.28391834 4953.03888735 2012.21222591 4964.8771944 C2009.4357383 4968.14476494 2006.70900997 4971.44739716 2004.0095892 4974.77880573 C1996.08705352 4984.50449917 1987.78296399 4993.91778119 1979.3611517 5003.21239948 C1977.51502358 5005.25919369 1975.69465636 5007.3251213 1973.8845892 5009.40380573 C1970.52598456 5013.25768847 1967.11112253 5017.05878814 1963.68537045 5020.85302448 C1962.2204881 5022.4770791 1960.75915088 5024.10434358 1959.30255795 5025.73583698 C1953.72891974 5031.9712801 1948.04493622 5038.098651 1942.3233099 5044.19799519 C1939.87570619 5046.80862132 1937.4350357 5049.42533606 1935.00202084 5052.04955769 C1924.10996006 5063.75724173 1912.85431166 5075.0893479 1901.53644466 5086.38232136 C1898.88639825 5089.02660434 1896.24096156 5091.67544705 1893.59676266 5094.32557583 C1891.52405943 5096.40191214 1889.44895675 5098.47583733 1887.3731451 5100.54906559 C1886.39655228 5101.5250002 1885.42067689 5102.50165335 1884.44559383 5103.47909641 C1879.43928849 5108.49488816 1874.39919573 5113.40105411 1869.00653744 5118.00204182 C1866.85296839 5119.86325743 1864.86584265 5121.86159063 1862.8845892 5123.90380573 C1859.54644996 5127.28195691 1856.15144363 5130.50339698 1852.49268262 5133.53275436 C1850.35392874 5135.34751751 1850.35392874 5135.34751751 1848.61682651 5137.45396147 C1844.18206792 5142.28161029 1840.33072618 5144.12994305 1833.81705141 5144.40826508 C1830.72818343 5144.48061538 1827.6457177 5144.45144323 1824.55650562 5144.41465372 C1822.82623722 5144.42347045 1821.09598377 5144.43579128 1819.36576227 5144.45128448 C1814.59501481 5144.4837978 1809.8255429 5144.46639842 1805.05479978 5144.44107346 C1799.85153398 5144.42228539 1794.64848036 5144.44994881 1789.44525465 5144.47167805 C1780.2854976 5144.50347967 1771.12610578 5144.50538222 1761.9663155 5144.4880529 C1748.2537388 5144.46224837 1734.54149327 5144.48237311 1720.828937 5144.51152649 C1697.46098319 5144.55983169 1674.09317778 5144.56996561 1650.72518635 5144.55932331 C1627.03561142 5144.54864465 1603.34613537 5144.55527089 1579.6565733 5144.58306789 C1578.14663853 5144.58482228 1576.63670375 5144.58657657 1575.12676898 5144.58833075 C1569.03877955 5144.59543839 1562.95079029 5144.60268175 1556.8628012 5144.61007936 C1539.70055722 5144.63090245 1522.53831078 5144.64881385 1505.37606156 5144.66472352 C1504.58956265 5144.66545327 1503.80306373 5144.66618302 1502.99273152 5144.66693488 C1459.10135431 5144.70732895 1415.20997513 5144.70772096 1371.31858287 5144.70839279 C1363.62499502 5144.70851132 1355.93140717 5144.70866057 1348.23781932 5144.7088631 C1346.52331965 5144.7089082 1344.80881998 5144.7089509 1343.09432031 5144.7089912 C1304.62621025 5144.70994366 1266.15811153 5144.72554199 1227.69000661 5144.74439187 C1219.10625653 5144.74859406 1210.52250638 5144.75266025 1201.93875625 5144.75674068 C1201.0867103 5144.75714599 1200.23466435 5144.7575513 1199.35679883 5144.75796889 C1194.18474433 5144.76042907 1189.01268983 5144.762885 1183.84063533 5144.76533871 C1181.24972966 5144.76656917 1178.65882399 5144.76780345 1176.06791832 5144.76903836 C1135.78282624 5144.78821838 1095.49773332 5144.80446431 1055.21263885 5144.81772423 C1054.33485865 5144.81801369 1053.45707844 5144.81830315 1052.55269883 5144.81860138 C996.61186733 5144.83697675 940.67104275 5144.84224563 884.73020857 5144.83823546 C881.97915204 5144.83803934 879.22809551 5144.83784919 876.47703897 5144.8376609 C857.14949653 5144.83633514 837.82195409 5144.83483494 818.49441166 5144.83328272 C812.95272315 5144.83283851 807.41103464 5144.83239908 801.86934614 5144.83195999 C797.2468527 5144.83159304 792.62435927 5144.83122086 788.00186584 5144.83083809 C700.69329827 5144.82363084 613.3847843 5144.83106063 526.07623959 5144.90008259 C525.15705387 5144.90080902 524.23786816 5144.90153546 523.29082833 5144.9022839 C494.57118554 5144.92503525 465.85154447 5144.94975935 437.13190365 5144.97485065 C407.663548 5145.00058229 378.19519221 5145.02608584 348.72683525 5145.0502739 C347.36582636 5145.05139279 347.36582636 5145.05139279 345.97732234 5145.05253428 C289.15624649 5145.09918121 232.33518594 5145.12761832 175.51409149 5145.13612938 C174.63655394 5145.13626282 173.75901638 5145.13639625 172.85488678 5145.13653373 C134.31624878 5145.14236091 95.77761153 5145.1439949 57.23897321 5145.14106971 C41.73497967 5145.1398979 26.2309861 5145.13915462 10.72699253 5145.13857577 C8.15634231 5145.13847263 5.58569209 5145.13834928 3.01504187 5145.13822131 C-36.30913733 5145.13634659 -75.63326963 5145.14550766 -114.95742822 5145.18816733 C-115.80556369 5145.18908601 -116.65369917 5145.19000468 -117.52753572 5145.19095119 C-131.17098348 5145.20578376 -144.81443027 5145.22146696 -158.45787699 5145.23721607 C-197.18713669 5145.28188258 -235.91633243 5145.31849773 -274.64562118 5145.3013202 C-275.43141331 5145.30097451 -276.21720544 5145.30062883 -277.02680946 5145.30027268 C-294.16997499 5145.29256913 -311.31313493 5145.28063892 -328.45629458 5145.26456187 C-335.29339186 5145.25821168 -342.13048958 5145.25240571 -348.96758747 5145.246768 C-349.71339988 5145.24613802 -350.4592123 5145.24550804 -351.22762509 5145.24485897 C-374.88414671 5145.22513339 -398.54031585 5145.25146115 -422.19677825 5145.3044095 C-446.13386813 5145.35778492 -470.07027479 5145.35941652 -494.00737644 5145.29787627 C-507.62833983 5145.26446241 -521.24778848 5145.27226601 -534.86863082 5145.34042536 C-543.9088144 5145.38157911 -552.94786146 5145.36857114 -561.98795359 5145.31107903 C-567.11724727 5145.27998594 -572.24355339 5145.27224172 -577.37267051 5145.33115037 C-610.81206079 5145.69027638 -610.81206079 5145.69027638 -619.77953475 5138.17599906 C-622.22899296 5135.68109212 -624.34140228 5133.10688055 -626.31834058 5130.22538966 C-628.29223779 5127.45328113 -630.65672956 5125.25034427 -633.1154108 5122.90380573 C-633.8063483 5122.19224323 -634.4972858 5121.48068073 -635.2091608 5120.74755573 C-637.12147547 5118.88491158 -639.05254976 5117.16110728 -641.08025455 5115.43114948 C-646.62328712 5110.619265 -651.76471699 5105.40393738 -656.94280338 5100.20678425 C-658.6743578 5098.46986973 -660.41119439 5096.73836684 -662.14861393 5095.00732136 C-667.30729143 5089.8514162 -672.36973094 5084.68481972 -677.10540104 5079.13207722 C-679.62945262 5076.24319102 -682.37101172 5073.58143112 -685.1154108 5070.90380573 C-689.21365071 5066.90527969 -693.07256901 5062.7893134 -696.81658268 5058.45654011 C-699.8265174 5055.02175032 -702.97504718 5051.71899373 -706.1154108 5048.40380573 C-710.52404451 5043.74974293 -714.84551921 5039.04462959 -719.04802799 5034.20312214 C-720.99510034 5031.96793161 -722.99035549 5029.7791057 -724.9904108 5027.59130573 C-728.93912525 5023.22094889 -732.6616829 5018.70077495 -736.3654108 5014.12255573 C-738.5504265 5011.48232844 -740.80712471 5008.93650853 -743.1154108 5006.40380573 C-747.34091162 5001.75648212 -751.31728491 4996.94392749 -755.26677799 4992.06152058 C-757.37219367 4989.47358204 -759.50087334 4986.9049635 -761.62664127 4984.33373737 C-771.51111375 4972.37135533 -781.22736132 4960.30204833 -790.6195612 4947.94848347 C-793.99523882 4943.51023174 -797.4081568 4939.10423136 -800.85051823 4934.71752644 C-807.80116208 4925.8515855 -814.46711797 4916.81429357 -821.01091862 4907.64501667 C-823.13826518 4904.67346441 -825.28651043 4901.71731744 -827.43425846 4898.76049519 C-830.17356564 4894.98372189 -832.89651995 4891.1952941 -835.6154108 4887.40380573 C-836.11492252 4886.70819538 -836.61443424 4886.01258503 -837.12908268 4885.29589558 C-855.06359158 4860.23072855 -872.00878337 4834.36441927 -888.6154108 4808.40380573 C-889.07915104 4807.6812862 -889.54289127 4806.95876667 -890.02068424 4806.21435261 C-904.27401776 4783.97331478 -917.82274545 4761.3099936 -930.91912174 4738.37157917 C-932.49134619 4735.62086524 -934.07121948 4732.87474434 -935.6544733 4730.13036823 C-947.90108842 4708.86748783 -959.72597782 4687.37950335 -970.96917057 4665.56908894 C-972.22831444 4663.14808934 -973.49725034 4660.7334926 -974.77532291 4658.3225069 C-981.50313863 4645.6245614 -988.00650683 4632.82167333 -994.4279108 4619.96630573 C-995.2193549 4618.38300968 -995.2193549 4618.38300968 -996.02678776 4616.76772785 C-1003.61818343 4601.56699435 -1011.04556008 4586.32310157 -1018.05193424 4570.84277058 C-1019.77680606 4567.04880673 -1021.52665725 4563.26694118 -1023.2794733 4559.48583698 C-1047.45246076 4507.25138569 -1069.49234307 4454.04012478 -1089.6028986 4400.11449909 C-1090.63616731 4397.34823651 -1091.67431863 4394.58384696 -1092.71355534 4391.81982136 C-1105.81293052 4356.94753598 -1117.84945229 4321.74267766 -1129.6154108 4286.40380573 C-1130.25991315 4284.4728065 -1130.90444209 4282.54181615 -1131.54900455 4280.61083698 C-1153.6213416 4214.37471362 -1172.31845429 4147.02752092 -1189.6154108 4079.40380573 C-1189.9166486 4078.22632771 -1190.21788639 4077.04884968 -1190.5282526 4075.8356905 C-1212.82380694 3988.49098596 -1231.57317956 3900.10554329 -1253.25504398 3775.54955769 C-1253.61235437 3773.42200482 -1253.97109895 3771.29469908 -1254.33037663 3769.16747761 C-1268.28726731 3686.5183111 -1279.65979327 3603.44477783 -1323.6786356 3002.99385929 C-1323.71876439 3001.47377489 -1323.75912106 2999.95369648 -1323.79974461 2998.43362522 C-1324.0865951 2987.69821046 -1324.33486908 2976.9622679 -1324.55670643 2966.22531605 C-1324.61883241 2963.23935303 -1324.68298263 2960.25343654 -1324.74703312 2957.26751423 C-1325.74060627 2910.20020532 -1325.81706149 2863.13632945 -1325.80363512 2816.06027269 C-1325.80290475 2813.00344905 -1325.80265872 2809.94662571 -1325.80254841 2806.88980198 C-1325.79909119 2743.97506642 -1325.52750824 2681.09599567 -1323.6962595 2618.20335865 C-1323.61387548 2615.35064179 -1323.53358847 2612.49787311 -1323.45397282 2609.64507771 C-1320.93287247 2519.33014805 -1316.91639982 2429.04778031 -1204.6154108 1592.40380573 C-1204.33586552 1591.19041523 -1204.05632023 1589.97702473 -1203.76830387 1588.72686481 C-1181.57872321 1492.53678612 -1155.84372672 1397.30375827 -1111.6154108 1260.40380573 C-1111.291413 1259.42838825 -1110.9674152 1258.45297077 -1110.63359928 1257.44799519 C-1078.10293873 1159.64813687 -1039.93320139 1063.54641817 -944.07195377 864.13720417 C-942.6717166 861.50947111 -941.27851187 858.87808662 -939.88697147 856.24573994 C-932.4103098 842.10675914 -924.81452244 828.05720455 -916.88494205 814.16552448 C-913.91730123 808.95975406 -911.02276685 803.71564385 -908.13396549 798.46581745 C-900.92528571 785.38126434 -893.3993337 772.52759574 -885.64568424 759.75976276 C-883.44782974 756.12680124 -881.26762698 752.48367974 -879.0919733 748.83739948 C-871.2324608 735.67092287 -863.31777841 722.55405106 -855.04314518 709.64257526 C-853.6014437 707.38190451 -852.17696576 705.11117505 -850.7560358 702.83739948 C-842.54540923 689.74700808 -833.9988941 676.88486091 -825.4279108 664.02880573 C-824.52939396 662.68035069 -824.52939396 662.68035069 -823.61272526 661.30465412 C-814.14582184 647.10510853 -804.60368383 632.95712197 -794.7404108 619.02880573 C-794.24976139 618.33512897 -793.75911198 617.64145222 -793.2535944 616.92675495 C-777.78970041 595.10716631 -761.88506508 573.62841126 -745.6154108 552.40380573 C-744.66615607 551.16294785 -743.71693322 549.92206556 -742.76775455 548.68114948 C-733.07589181 536.02762422 -723.17527288 523.55574896 -713.0919733 511.21239948 C-711.7849354 509.61145093 -710.48117725 508.00782597 -709.1779108 506.40380573 C-704.74656377 500.95957937 -700.24277541 495.58271004 -695.69646549 490.23461628 C-692.83648228 486.86491829 -690.0226704 483.46331666 -687.2404108 480.02880573 C-679.08301333 470.01811759 -670.53551171 460.33921783 -661.81462955 450.81786823 C-659.2944916 448.05153563 -656.83350193 445.23834868 -654.37712955 442.41552448 C-647.7369448 434.83305187 -640.90662811 427.41826678 -634.08318424 420.0009737 C-632.56309518 418.34687812 -631.04620718 416.68988418 -629.5294733 415.03271198 C-624.63085269 409.69100006 -619.70008188 404.42643255 -614.52668095 399.34751606 C-612.76708149 397.55805074 -611.13561251 395.72039951 -609.51165104 393.80834675 C-605.09419971 388.72922244 -600.35143322 383.99631666 -595.58806705 379.24364948 C-594.63060056 378.28550713 -593.67328236 377.32721657 -592.71610355 376.36878681 C-590.72167334 374.37289287 -588.7254734 372.37879121 -586.72795963 370.38598347 C-584.18866682 367.8523871 -581.65389178 365.3143259 -579.12043953 362.7748909 C-577.14808896 360.7988987 -575.17332818 358.82532894 -573.19786739 356.85244656 C-571.81414453 355.46969974 -570.43240766 354.08496643 -569.0507288 352.70017719 C-564.59155873 348.25739488 -560.08261374 343.94525195 -555.29203129 339.86024189 C-552.7640171 337.66422239 -550.4550392 335.29981072 -548.1154108 332.90380573 C-544.52619462 329.26607002 -540.86211608 325.79510589 -536.9747858 322.47802448 C-533.6185912 319.52746267 -530.37358886 316.46179827 -527.1154108 313.40380573 C-522.02850769 308.63842804 -516.92078281 303.92641793 -511.6154108 299.40380573 C-509.32285411 297.44651253 -507.03142766 295.48790099 -504.7404108 293.52880573 C-504.13148991 293.00874958 -503.52256901 292.48869343 -502.89519596 291.952878 C-499.35821717 288.92422739 -495.87106118 285.8519339 -492.4279108 282.71630573 C-488.2417178 278.91873325 -483.91522067 275.33314629 -479.5216608 271.77880573 C-476.41148049 269.237153 -473.35648866 266.63775914 -470.3029108 264.02880573 C-465.3171057 259.78229557 -460.22765257 255.69425251 -455.05974674 251.67211628 C-450.50643548 248.12291677 -446.02250053 244.49518733 -441.5529108 240.84130573 C-435.2993918 235.74037574 -428.97579051 230.7584876 -422.54900455 225.87646198 C-420.2850802 224.15222061 -418.02844635 222.41862979 -415.7716608 220.68505573 C-404.52420313 212.05939765 -393.16869577 203.61520968 -381.6154108 195.40380573 C-380.92028385 194.9096114 -380.2251569 194.41541706 -379.50896549 193.90624714 C-375.27759773 190.90235188 -371.03467043 187.91526955 -366.7872858 184.93407917 C-364.6301286 183.41417569 -362.48152835 181.88281326 -360.3341608 180.34911823 C-286.22814739 127.65740352 -206.05614915 82.15293248 -85.74419498 26.33410358 C-83.67719203 25.43080468 -81.61141089 24.52477582 -79.54607487 23.61767292 C-76.31870501 22.20044712 -73.08944243 20.78763468 -69.85842228 19.3787508 C-68.17962428 18.6465698 -66.50161106 17.91259011 -64.82366276 17.17846394 C-62.60563083 16.21720101 -60.38017788 15.27291422 -58.14831569 14.34421445 C-54.68004596 12.88672997 -51.27725914 11.31390787 -47.87009383 9.71922578 C-31.49623643 2.28215606 -17.85814866 -0.18990002 0 0 Z M432.3845892 801.40380573 C430.86506195 802.08610633 429.34553104 802.76839874 427.82599545 803.45068073 C416.01790901 808.81661828 404.67757441 815.03663072 393.3845892 821.40380573 C392.50174252 821.89977253 391.61889584 822.39573933 390.70929623 822.90673542 C368.59433291 835.4138072 347.42283913 849.78951135 327.3845892 865.40380573 C326.18025095 866.3323064 324.97582316 867.26069091 323.77130795 868.18896198 C316.37054928 873.92198652 309.17063915 879.86757088 302.06720638 885.96386433 C300.28556751 887.488546 298.49585509 889.00336079 296.7049017 890.51708698 C288.63227038 897.35493586 288.63227038 897.35493586 281.05670834 904.73266315 C279.40624439 906.38216318 277.69255301 907.88093387 275.91193295 909.38818073 C270.83116854 913.80651489 266.08711877 918.55092565 261.3389349 923.31908894 C259.8246634 924.83872242 258.30511489 926.35293091 256.78497982 927.86669636 C251.99519721 932.65320352 247.31291071 937.48850742 242.90729427 942.63598347 C240.52222769 945.40498573 238.00933213 948.05125925 235.5095892 950.71630573 C231.02591651 955.53616651 226.76834689 960.47884551 222.64630795 965.61474323 C220.63843527 968.09077274 218.58378284 970.51801266 216.50446224 972.93407917 C210.0350982 980.46533669 204.01965477 988.30682722 198.03742123 996.2275362 C196.42534055 998.35014878 194.7971429 1000.45913287 193.16193295 1002.56396198 C158.22480315 1047.61209574 128.83805328 1097.17229226 102.75324154 1147.76806355 C101.47669035 1150.2264379 100.18079211 1152.67294413 98.87287045 1155.11474323 C85.40951143 1180.26057938 73.73993283 1206.25496332 62.3845892 1232.40380573 C62.05138668 1233.17097919 61.71818417 1233.93815266 61.37488461 1234.7285738 C50.27353264 1260.33237923 40.09953815 1286.24491913 30.3845892 1312.40380573 C29.82144798 1313.91503986 29.2582973 1315.42627047 28.69513607 1316.93749714 C-4.72909122 1406.82755347 -30.61285875 1499.58535871 -58.6154108 1624.40380573 C-58.75953152 1625.07260509 -58.90365223 1625.74140446 -59.05214024 1626.43047047 C-74.44055292 1697.92040373 -87.25618213 1769.91451679 -140.6154108 2242.40380573 C-140.67025135 2243.20128979 -140.7250919 2243.99877384 -140.78159428 2244.82042408 C-146.96608281 2334.92954706 -151.26014194 2425.18391668 -155.52294254 2577.43865681 C-155.60696918 2581.04181886 -155.69274091 2584.64493451 -155.77898502 2588.24804401 C-156.13483387 2603.29886762 -156.39897675 2618.35036643 -156.6154108 2633.40380573 C-156.62612614 2634.14291439 -156.63684147 2634.88202305 -156.64788151 2635.64352894 C-158.08304945 2734.90081528 -158.2190334 2834.17671928 -77.6154108 3791.40380573 C-77.27666935 3793.15585316 -77.27666935 3793.15585316 -76.93108463 3794.94329548 C-57.72523042 3893.96625541 -33.19195408 3992.08734049 67.3845892 4261.40380573 C67.92164486 4262.54108112 68.45870052 4263.67835651 69.0120306 4264.8500948 C81.82683804 4291.88571132 95.35702215 4318.52414419 110.3845892 4344.40380573 C111.06369393 4345.57880244 111.74255677 4346.75393898 112.42121029 4347.92919636 C120.30409611 4361.57065685 128.21058443 4375.17816527 136.96857357 4388.28271198 C138.56992387 4390.6814243 140.15696569 4393.08932576 141.7439642 4395.49755573 C149.08791165 4406.61299251 156.58980732 4417.59956875 164.3845892 4428.40380573 C164.93614681 4429.16934772 165.48770443 4429.93488972 166.05597591 4430.72362995 C173.72173132 4441.33026754 181.66827769 4451.63541144 190.00372982 4461.72314167 C191.86678464 4463.99069283 193.68896255 4466.28961921 195.5095892 4468.59130573 C202.97760164 4477.93806345 210.78035904 4486.94100216 218.91193295 4495.71239948 C220.89114186 4497.86670429 222.80685176 4500.04747282 224.6970892 4502.27880573 C228.68103716 4506.89435521 233.0591485 4511.12873727 237.41120052 4515.39355183 C240.64942125 4518.58477695 243.55852551 4521.83436443 246.3845892 4525.40380573 C247.54075394 4526.48014619 248.7286384 4527.52351804 249.9470892 4528.52880573 C253.42746278 4531.49716905 256.67614479 4534.64733403 259.8845892 4537.90380573 C264.22183349 4542.28742586 268.68239941 4546.41628383 273.3845892 4550.40380573 C274.39966219 4551.28184559 275.41391458 4552.1608346 276.42755795 4553.04052448 C303.19567882 4576.22176359 331.70989235 4597.66362483 362.47589779 4615.30370808 C364.64932474 4616.55638931 366.80736657 4617.83388746 368.96662045 4619.11083698 C435.297054 4658.03462363 510.33465361 4681.45857881 658.6970892 4693.59130573 C660.41711147 4693.59039936 660.41711147 4693.59039936 662.17188168 4693.58947468 C679.9965725 4693.56403787 697.63752453 4693.18942974 715.3845892 4691.40380573 C716.03119503 4691.34064167 716.67780087 4691.27747761 717.34400082 4691.21239948 C799.21147409 4683.21026033 878.1323788 4658.37454012 1013.3845892 4568.40380573 C1013.96434505 4567.92314655 1014.54410091 4567.44248737 1015.14142513 4566.94726276 C1022.52364782 4560.81938336 1029.66847165 4554.48126683 1036.69538021 4547.94946003 C1037.95604047 4546.79593494 1039.22949853 4545.65636726 1040.50934505 4544.52416706 C1047.19816902 4538.59560583 1053.55713382 4532.38519146 1059.86286068 4526.05590534 C1061.57666152 4524.33671904 1063.29578002 4522.6229799 1065.01544857 4520.90966511 C1070.68742739 4515.24111548 1076.18121055 4509.51055497 1081.3845892 4503.40380573 C1083.00426736 4501.62810352 1084.62870637 4499.85672266 1086.2595892 4498.09130573 C1090.35216355 4493.60367141 1094.23729754 4488.99450345 1098.0486517 4484.26708698 C1100.10212304 4481.75003933 1102.19971698 4479.27876514 1104.32013607 4476.81811237 C1110.52014788 4469.60565183 1116.23024286 4462.08425979 1121.87726498 4454.43456745 C1123.34487104 4452.45731652 1124.82795931 4450.49295604 1126.31818295 4448.53271198 C1155.44749636 4410.17863098 1180.74183783 4368.87430517 1203.3845892 4326.40380573 C1203.84478451 4325.54126179 1204.30497982 4324.67871784 1204.77912045 4323.7900362 C1208.3747371 4317.02546586 1211.8927506 4310.22244577 1215.3845892 4303.40380573 C1215.71027889 4302.76916401 1216.03596859 4302.13452229 1216.37152767 4301.48064899 C1228.18112158 4278.4568737 1239.15454723 4255.17035943 1249.3845892 4231.40380573 C1250.05369045 4229.85448638 1250.72279856 4228.30516999 1251.39191341 4226.75585651 C1281.24373838 4157.50493015 1305.89078683 4085.95757148 1326.3845892 4013.40380573 C1326.66951229 4012.39690693 1326.95443539 4011.39000813 1327.24799252 4010.35259724 C1344.14206444 3950.55418133 1358.62168264 3890.20832248 1371.3845892 3829.40380573 C1371.63210934 3828.22572346 1371.87962948 3827.04764118 1372.13465023 3825.83385944 C1380.4446766 3786.18536892 1387.60262142 3746.33772037 1394.3845892 3706.40380573 C1394.5524493 3705.41603767 1394.5524493 3705.41603767 1394.72370052 3704.4083147 C1409.32951593 3618.39454185 1420.42164423 3531.84497876 1460.44781399 2936.70720005 C1460.48794032 2935.04863244 1460.52829683 2933.39007037 1460.568923 2931.73151493 C1460.85661029 2919.98328173 1461.10361892 2908.23455028 1461.32568264 2896.48489857 C1461.38780113 2893.23580626 1461.45247839 2889.98677013 1461.51721859 2886.73772907 C1462.51483338 2835.88565383 1462.54028636 2785.03631536 1462.51315844 2734.17603397 C1462.50938837 2726.2887374 1462.51074872 2718.4014534 1462.51496029 2710.5141573 C1462.54178164 2658.90744396 1462.43188724 2607.3161157 1461.44736385 2555.71770954 C1461.38857709 2552.61432853 1461.33225524 2549.51091645 1461.27716732 2546.40746784 C1461.07643851 2535.13453844 1460.84128946 2523.86280201 1460.5720892 2512.59130573 C1460.55241211 2511.75892635 1460.53273502 2510.92654697 1460.51246166 2510.06894398 C1458.11447115 2408.92469099 1453.96926796 2307.7956205 1316.3845892 1384.40380573 C1316.09926327 1383.45779499 1315.81393734 1382.51178425 1315.51996517 1381.53710651 C1290.09500464 1297.3494461 1258.90977034 1215.21144284 1189.3845892 1078.40380573 C1188.71198632 1077.236044 1188.03946317 1076.06823633 1187.36701107 1074.90038776 C1178.8903209 1060.194854 1170.24089458 1045.65444527 1160.80744076 1031.53515339 C1159.45660945 1029.51168782 1158.11787646 1027.48080688 1156.7830267 1025.44677448 C1143.08325978 1004.63175007 1128.46219778 984.34004808 1112.71027279 965.02929401 C1111.48888766 963.5316914 1110.27430579 962.02854712 1109.06037045 960.52489948 C1100.03308316 949.39070493 1090.66831789 938.5819486 1080.91608334 928.07885456 C1079.76336165 926.81808245 1078.62417289 925.54491684 1077.49176693 924.26586628 C1071.69833806 917.73438753 1065.64686658 911.51168628 1059.4639349 905.35278034 C1057.81717516 903.71140777 1056.17586824 902.06471754 1054.53497982 900.41747761 C1048.98972727 894.86872667 1043.3618447 889.48949022 1037.3845892 884.40380573 C1035.77690547 882.94935056 1034.17219205 881.49159678 1032.5720892 880.02880573 C1027.32277943 875.2980448 1021.88834974 870.83383522 1016.3845892 866.40380573 C1015.25145222 865.47842166 1014.11865471 864.5526218 1012.9861517 863.62646198 C935.46429705 800.53167333 840.68332081 761.45582145 432.3845892 801.40380573 Z " fill="#000000" transform="translate(5996.6154108047485,-1.4038057327270508)"/>
<path d="M0 0 C360.03 0 720.06 0 1091 0 C1091 1145.1 1091 2290.2 1091 3470 C1348.73 3470 1606.46 3470 1872 3470 C1872 3746.21 1872 4022.42 1872 4307 C1614.27 4307 1356.54 4307 1091 4307 C1091 4582.55 1091 4858.1 1091 5142 C744.17 5142 397.34 5142 40 5142 C40 4866.45 40 4590.9 40 4307 C-775.43 4307 -1590.86 4307 -2431 4307 C-2431 3462 -2431 3462 -2417 3447 C-2414.30508961 3443.95493791 -2414.30508961 3443.95493791 -2411.63671875 3440.88671875 C-2409.62126228 3438.56341213 -2407.56151538 3436.28251535 -2405.5 3434 C-2402.82951656 3431.04130249 -2400.17701942 3428.07073528 -2397.5625 3425.0625 C-2394.75177475 3421.83440488 -2391.884201 3418.66261557 -2389 3415.5 C-2384.01424271 3410.02764478 -2379.11572853 3404.49471106 -2374.32421875 3398.8515625 C-2368.77649277 3392.32773736 -2363.13604332 3385.93474326 -2357.28588867 3379.68041992 C-2354.2616298 3376.42668335 -2351.39999502 3373.09759081 -2348.625 3369.625 C-2344.39149739 3364.34466766 -2339.80394367 3359.46442375 -2335.15722656 3354.55175781 C-2330.97591081 3350.10812047 -2327.08080506 3345.51201229 -2323.2734375 3340.7421875 C-2320.62657893 3337.5495849 -2317.83434764 3334.52557647 -2315 3331.5 C-2311.37047617 3327.62529176 -2307.88251843 3323.71100009 -2304.5625 3319.5625 C-2301.05356678 3315.187478 -2297.34153921 3311.07980841 -2293.5 3307 C-2288.8533639 3302.06482764 -2284.48073751 3297.00524355 -2280.2421875 3291.7109375 C-2277.7609345 3288.71095565 -2275.15135693 3285.84846349 -2272.5 3283 C-2269.04835946 3279.29140465 -2265.73477706 3275.51493923 -2262.5625 3271.5625 C-2259.19653536 3267.37762447 -2255.66822171 3263.41687569 -2252 3259.5 C-2247.52084173 3254.71683601 -2243.31548578 3249.79185052 -2239.2109375 3244.6796875 C-2236.8906505 3241.86746685 -2234.46928866 3239.18202737 -2232 3236.5 C-2228.70668301 3232.92207537 -2225.55348679 3229.28460334 -2222.5 3225.5 C-2218.66280969 3220.74404581 -2214.60614899 3216.24495199 -2210.46875 3211.75 C-2208.05621896 3209.06262366 -2205.7674379 3206.31034556 -2203.5 3203.5 C-2199.66280969 3198.74404581 -2195.60614899 3194.24495199 -2191.46875 3189.75 C-2189.05621896 3187.06262366 -2186.7674379 3184.31034556 -2184.5 3181.5 C-2181.44651321 3177.71539666 -2178.29331699 3174.07792463 -2175 3170.5 C-2170.88621091 3166.0301488 -2167.02912703 3161.40955107 -2163.21484375 3156.68359375 C-2161.04367173 3154.05291443 -2158.79758643 3151.52057576 -2156.5 3149 C-2153.47717579 3145.68010514 -2150.57487839 3142.30235888 -2147.75 3138.8125 C-2142.53613562 3132.37451094 -2137.08958747 3126.14836434 -2131.65087891 3119.90087891 C-2124.75118267 3111.95633072 -2117.93468727 3103.93994734 -2111.1484375 3095.8984375 C-2107.74659391 3091.8709675 -2104.31382005 3087.87090781 -2100.875 3083.875 C-2097.38180518 3079.8137519 -2093.93551449 3075.72481221 -2090.5625 3071.5625 C-2086.41939009 3066.45692535 -2082.1176955 3061.50199947 -2077.79711914 3056.54711914 C-2074.63534162 3052.91262149 -2071.53149794 3049.24479157 -2068.5 3045.5 C-2064.92458474 3041.08331056 -2061.23400652 3036.78219615 -2057.5 3032.5 C-2053.00492302 3027.34424284 -2048.61376778 3022.12489122 -2044.30859375 3016.80859375 C-2041.58655909 3013.4970152 -2038.79860269 3010.24686941 -2036 3007 C-2032.44542508 3002.875357 -2028.93207702 2998.72792096 -2025.5 2994.5 C-2022.06791987 2990.2720752 -2018.55448829 2986.1247211 -2015 2982 C-2010.68065728 2976.98685227 -2006.44902723 2971.91462485 -2002.27734375 2966.77734375 C-1999.71795946 2963.65603633 -1997.11406209 2960.5754997 -1994.5 2957.5 C-1991.12716411 2953.53096457 -1987.78823355 2949.53982979 -1984.5 2945.5 C-1981.21176186 2941.46016457 -1977.87265239 2937.46919573 -1974.5 2933.5 C-1970.44987401 2928.7308879 -1966.45647887 2923.92087568 -1962.50390625 2919.0703125 C-1954.671033 2909.46557245 -1946.79551246 2899.89933639 -1938.76220703 2890.46142578 C-1935.45706789 2886.56805276 -1932.26470718 2882.59643365 -1929.09375 2878.59375 C-1926.61188737 2875.51920375 -1924.06144118 2872.50827521 -1921.5 2869.5 C-1917.56278119 2864.87407055 -1913.7140786 2860.19238735 -1909.9375 2855.43359375 C-1903.45615446 2847.29271014 -1896.78178554 2839.30340954 -1890.16479492 2831.27270508 C-1885.43023628 2825.52566053 -1880.71081214 2819.76653087 -1876 2814 C-1874.50014304 2812.16654964 -1873.0001406 2810.33321829 -1871.5 2808.5 C-1870.37851562 2807.12908203 -1870.37851562 2807.12908203 -1869.234375 2805.73046875 C-1867.78702949 2803.96177205 -1866.33914699 2802.19351457 -1864.890625 2800.42578125 C-1858.80302665 2792.99402341 -1852.7448411 2785.53856578 -1846.68945312 2778.08056641 C-1843.96041309 2774.71974572 -1841.23015975 2771.3599111 -1838.5 2768 C-1837.41666054 2766.66667165 -1836.33332721 2765.33333831 -1835.25 2764 C-1828.75 2755.99999999 -1828.75 2755.99999999 -1827.12451172 2753.99951172 C-1826.04265888 2752.66792549 -1824.96095282 2751.33622 -1823.87939453 2750.00439453 C-1821.14960892 2746.64333059 -1818.41719783 2743.28446381 -1815.6796875 2739.9296875 C-1810.58572346 2733.68220308 -1805.52013033 2727.41890332 -1800.5625 2721.0625 C-1795.34415352 2714.37613517 -1789.95442547 2707.83768564 -1784.55078125 2701.30078125 C-1776.63554346 2691.72418719 -1768.81027113 2682.08060473 -1761.16333008 2672.28833008 C-1757.12121573 2667.12409616 -1752.98225106 2662.04163158 -1748.8359375 2656.9609375 C-1744.88582549 2652.11222181 -1741.00719462 2647.21277125 -1737.15966797 2642.2824707 C-1733.70625289 2637.86894401 -1730.17503854 2633.52350154 -1726.625 2629.1875 C-1722.15826561 2623.72713027 -1717.81920416 2618.18793802 -1713.5625 2612.5625 C-1708.61458366 2606.02530278 -1703.4780269 2599.67766868 -1698.23291016 2593.37744141 C-1693.61041656 2587.80095745 -1689.1987037 2582.08656267 -1684.82861328 2576.3112793 C-1680.58065095 2570.71427572 -1676.18814134 2565.25013102 -1671.73852539 2559.81274414 C-1666.85746578 2553.8445428 -1662.08808896 2547.79413436 -1657.34277344 2541.71777344 C-1655.06766067 2538.80728372 -1652.7833163 2535.90405504 -1650.5 2533 C-1649.58329022 2531.83336721 -1648.66662352 2530.66670056 -1647.75 2529.5 C-1631.25000001 2508.50000001 -1631.25000001 2508.50000001 -1629.87573242 2506.75097656 C-1628.95656687 2505.58109984 -1628.03745905 2504.41117777 -1627.1184082 2503.24121094 C-1624.86543906 2500.37328843 -1622.61156277 2497.5060901 -1620.35546875 2494.640625 C-1613.46932252 2485.89140702 -1606.62901091 2477.10702728 -1599.79833984 2468.31445312 C-1596.86700637 2464.54184366 -1593.93340802 2460.77099645 -1591 2457 C-1589.83332206 2455.50000877 -1588.6666554 2454.00000876 -1587.5 2452.5 C-1566.49999998 2425.49999998 -1566.49999998 2425.49999998 -1564.74902344 2423.2487793 C-1563.58556688 2421.75288338 -1562.42215522 2420.25695255 -1561.25878906 2418.76098633 C-1558.29338002 2414.94790224 -1555.32712738 2411.13547936 -1552.359375 2407.32421875 C-1545.54462323 2398.57091414 -1538.7539704 2389.80028925 -1532 2381 C-1530.33390747 2378.83289153 -1528.66694801 2376.66645047 -1527 2374.5 C-1526.16665095 2373.41667876 -1525.33331759 2372.33334544 -1524.5 2371.25 C-1509.49999997 2351.74999996 -1509.49999997 2351.74999996 -1508.25073242 2350.12597656 C-1507.41492624 2349.03941221 -1506.57915165 2347.95282355 -1505.7434082 2346.86621094 C-1503.69816364 2344.20711452 -1501.65230009 2341.5485006 -1499.60546875 2338.890625 C-1493.27237327 2330.6647627 -1486.9636048 2322.42047125 -1480.66015625 2314.171875 C-1479.05534906 2312.0724096 -1477.44972084 2309.97357536 -1475.84375 2307.875 C-1472.56067457 2303.58472738 -1469.27987938 2299.29271634 -1466 2295 C-1465.37722168 2294.18515137 -1464.75444336 2293.37030273 -1464.11279297 2292.53076172 C-1456.19146663 2282.16299835 -1448.31550204 2271.76421866 -1440.5065918 2261.31152344 C-1436.38030161 2255.80255932 -1432.18225234 2250.35555029 -1427.9375 2244.9375 C-1422.62484783 2238.15307949 -1417.47547411 2231.26470954 -1412.38598633 2224.31176758 C-1404.7297166 2213.87024182 -1396.82934289 2203.61440483 -1388.95898438 2193.33398438 C-1381.31508748 2183.34488421 -1373.72813908 2173.32341909 -1366.29736328 2163.17456055 C-1361.85505306 2157.12173939 -1357.31607437 2151.14733864 -1352.75 2145.1875 C-1348.00495219 2138.99207908 -1343.34530779 2132.76192496 -1338.85961914 2126.37670898 C-1335.10258642 2121.06541608 -1331.14621107 2115.91192156 -1327.1875 2110.75 C-1322.1915293 2104.23473224 -1317.27371486 2097.67991168 -1312.5 2091 C-1307.72628066 2084.32008205 -1302.80830212 2077.7654023 -1297.8125 2071.25 C-1293.00767053 2064.98170191 -1288.27082131 2058.6869998 -1283.71704102 2052.23413086 C-1278.53049962 2044.89127816 -1273.15839475 2037.68417621 -1267.81445312 2030.45556641 C-1264.87205325 2026.47350802 -1261.9362252 2022.48661232 -1259 2018.5 C-1255.49112785 2013.73617273 -1251.98102195 2008.97328199 -1248.46484375 2004.21484375 C-1242.2259032 1995.76742867 -1236.02941003 1987.29241591 -1229.89428711 1978.76928711 C-1225.38568587 1972.5137479 -1220.81319395 1966.30681654 -1216.23046875 1960.10546875 C-1212.28584596 1954.76142324 -1208.38030944 1949.39089219 -1204.5 1944 C-1200.03979047 1937.80345586 -1195.53740365 1931.64023977 -1191 1925.5 C-1184.80974505 1917.12062325 -1178.69525542 1908.68892429 -1172.60888672 1900.23388672 C-1169.90987872 1896.48640216 -1167.20461116 1892.74344155 -1164.5 1889 C-1163.41663696 1887.50002146 -1162.33330362 1886.00002146 -1161.25 1884.5 C-1154.75 1875.50000001 -1154.75 1875.50000001 -1153.12426758 1873.24902344 C-1152.04332809 1871.75231299 -1150.96243599 1870.25556832 -1149.8815918 1868.75878906 C-1147.1370246 1864.95817363 -1144.39158034 1861.15819702 -1141.64453125 1857.359375 C-1136.34378189 1850.02749738 -1131.05321295 1842.68905364 -1125.8034668 1835.32055664 C-1122.4325072 1830.59364258 -1119.02977374 1825.89009337 -1115.625 1821.1875 C-1110.87306422 1814.62159342 -1106.17710907 1808.01901961 -1101.515625 1801.38867188 C-1097.92640655 1796.29141792 -1094.28594074 1791.23342315 -1090.625 1786.1875 C-1085.41362817 1779.00155563 -1080.30724732 1771.74722747 -1075.2331543 1764.46386719 C-1071.3585303 1758.91226336 -1067.42058329 1753.41168318 -1063.4375 1747.9375 C-1058.97411511 1741.8005151 -1054.63677076 1735.59108035 -1050.375 1729.3125 C-1046.11246359 1723.03333419 -1041.7471868 1716.85766362 -1037.22729492 1710.76171875 C-1031.59919084 1703.14847295 -1026.21702478 1695.36270563 -1020.80712891 1687.59375 C-1017.83582998 1683.32908102 -1014.85559759 1679.07067307 -1011.875 1674.8125 C-1011.00137817 1673.56400269 -1011.00137817 1673.56400269 -1010.11010742 1672.2902832 C-1006.41902743 1667.01812427 -1002.71477476 1661.7554847 -999 1656.5 C-988.92329139 1642.24167484 -978.93702542 1627.92040741 -968.97290039 1613.58325195 C-964.55829974 1607.23322023 -960.12775617 1600.89461153 -955.6875 1594.5625 C-951.19928383 1588.15995282 -946.7426403 1581.73739583 -942.32299805 1575.28735352 C-938.24314563 1569.33883253 -934.12277833 1563.41882588 -930 1557.5 C-924.06534369 1548.97826414 -918.1575966 1540.43905913 -912.28564453 1531.87402344 C-910.52217291 1529.30349397 -908.75472999 1526.7357046 -906.98754883 1524.16772461 C-901.92451729 1516.80950048 -896.87799426 1509.44008113 -891.83642578 1502.06713867 C-888.39802763 1497.03986865 -884.95258772 1492.01753393 -881.5 1487 C-871.06484802 1471.83069564 -860.69155851 1456.61962627 -850.34375 1441.390625 C-847.61738848 1437.37828942 -844.88854139 1433.36767464 -842.15625 1429.359375 C-831.8851585 1414.28574172 -821.67994112 1399.16802142 -811.48730469 1384.04125977 C-810.21549986 1382.15380518 -808.94368994 1380.26635402 -807.671875 1378.37890625 C-807.03610535 1377.43535782 -806.40033569 1376.49180939 -805.74530029 1375.51966858 C-801.40499954 1369.07991523 -797.05609531 1362.64603791 -792.703125 1356.21484375 C-777.23011321 1333.34468723 -761.95672315 1310.35093308 -746.79095459 1287.27603149 C-742.18233534 1280.26789637 -737.53874291 1273.28406318 -732.875 1266.3125 C-710.49500034 1232.83818697 -688.44391611 1199.135031 -666.52832031 1165.35498047 C-664.40025519 1162.07585649 -662.26963832 1158.7983939 -660.13891602 1155.52099609 C-659.0480756 1153.84305506 -657.95741744 1152.16499553 -656.86694336 1150.48681641 C-654.19916061 1146.3813663 -651.52949118 1142.27717037 -648.85546875 1138.17578125 C-642.11969752 1127.83877879 -635.44496714 1117.46420532 -628.80151367 1107.06762695 C-625.05153018 1101.20046246 -621.29008527 1095.34133455 -617.5 1089.5 C-606.70835748 1072.86023491 -596.06498022 1056.12421602 -585.42578125 1039.38671875 C-583.13496357 1035.78294313 -580.84050536 1032.18152686 -578.54296875 1028.58203125 C-571.79750447 1018.00908443 -565.10969473 1007.40222293 -558.47167969 996.76147461 C-554.60213097 990.55940871 -550.71866242 984.36657274 -546.8125 978.1875 C-546.32604004 977.41776855 -545.83958008 976.64803711 -545.33837891 975.85498047 C-542.94680646 972.07279146 -540.55144689 968.29304125 -538.15234375 964.515625 C-531.65421832 954.27192244 -525.27109259 943.96152877 -518.92724609 933.62158203 C-514.95566606 927.15531476 -510.94614467 920.71649374 -506.875 914.3125 C-501.95226018 906.56511454 -497.17125429 898.73707119 -492.41479492 890.88671875 C-488.23030801 883.99153365 -483.97708071 877.142715 -479.6875 870.3125 C-472.04999894 858.13964214 -464.59432407 845.86014796 -457.15722656 833.56445312 C-453.96503923 828.288021 -450.76268071 823.0177664 -447.56103516 817.74707031 C-446.49736388 815.99565944 -445.43415351 814.24396961 -444.37109375 812.4921875 C-441.20587667 807.27664721 -438.03914076 802.06206444 -434.86383057 796.85266113 C-426.58706632 783.27348133 -418.39389162 769.64893155 -410.29455566 755.96310425 C-404.71731983 746.54059592 -399.07828284 737.15919747 -393.375 727.8125 C-385.7489654 715.31079664 -378.32893638 702.694232 -370.9491272 690.04600525 C-367.81992283 684.68514764 -364.66321247 679.34083661 -361.5 674 C-350.38257821 655.20984357 -339.34146105 636.37654868 -328.45141602 617.45361328 C-324.34918022 610.32784757 -320.21495757 603.22159639 -316.0625 596.125 C-309.31531123 584.58413239 -302.67871128 572.98122615 -296.06037903 561.3662262 C-293.68631566 557.20066096 -291.30576394 553.03885517 -288.921875 548.87890625 C-281.32977546 535.62670023 -273.8059189 522.33861219 -266.359375 509.00390625 C-263.11571164 503.19842226 -259.84158309 497.41052879 -256.5625 491.625 C-249.94062889 479.93157246 -243.41781034 468.18389108 -236.90283203 456.43066406 C-235.02997868 453.05404933 -233.15424293 449.6790548 -231.27734375 446.3046875 C-219.07525979 424.3672568 -206.87630112 402.43063593 -195.00537109 380.31176758 C-191.38568411 373.5673009 -187.73733877 366.83955817 -184.0625 360.125 C-176.9574747 347.12852229 -169.97019979 334.06912461 -163 321 C-162.47672119 320.01885223 -162.47672119 320.01885223 -161.94287109 319.0178833 C-153.45719486 303.10338848 -145.01317532 287.16893808 -136.69140625 271.16796875 C-134.14371514 266.27010313 -131.57517541 261.38345876 -129 256.5 C-123.83110176 246.69221448 -118.69781925 236.86603316 -113.57861328 227.03222656 C-112.54368047 225.04431046 -111.50821748 223.05667027 -110.47216797 221.06933594 C-106.29583687 213.05597579 -102.14272295 205.03076741 -98 197 C-97.63424866 196.29147888 -97.26849731 195.58295776 -96.8916626 194.85296631 C-83.2339392 168.38853819 -69.84297387 141.79188696 -56.51794434 115.15882492 C-55.265072 112.65511947 -54.01151522 110.15175775 -52.7578125 107.64846802 C-44.09372495 90.34511823 -35.49537241 73.02134078 -27.20666504 55.53417969 C-23.99595799 48.79120768 -20.71115491 42.08366897 -17.43701172 35.37133789 C-16.23416654 32.90503523 -15.03302648 30.43790709 -13.83203125 27.97070312 C-13.03916203 26.34370149 -12.24619681 24.71674664 -11.453125 23.08984375 C-11.10815979 22.38117661 -10.76319458 21.67250946 -10.40777588 20.94236755 C-6.98791101 13.93586514 -3.4873467 6.97469339 0 0 Z M39 1442 C38.70456299 1442.5762915 38.40912598 1443.15258301 38.10473633 1443.74633789 C31.99166138 1455.64062509 25.70964634 1467.4036765 19.07177734 1479.01342773 C14.72414134 1486.64655901 10.56017531 1494.36923346 6.4375 1502.125 C1.1324134 1512.09772726 -4.33238802 1521.95952708 -9.98046875 1531.7421875 C-13.33913283 1537.56534743 -16.60435304 1543.43960672 -19.875 1549.3125 C-25.60643669 1559.58401618 -31.4876025 1569.76007416 -37.4375 1579.90625 C-40.50569462 1585.14182272 -43.53508187 1590.39888966 -46.55639648 1595.66162109 C-52.66949937 1606.30738546 -58.88962323 1616.87913499 -65.23193359 1627.38989258 C-69.70634092 1634.81452877 -74.10695634 1642.27912216 -78.47695923 1649.76541138 C-85.62135886 1662.00414493 -92.89870257 1674.15372527 -100.30712891 1686.23486328 C-102.59450941 1689.97107204 -104.8680512 1693.71562203 -107.14208984 1697.45996094 C-115.37227437 1711.00764705 -123.67592316 1724.50984661 -132 1738 C-132.85658203 1739.38832031 -132.85658203 1739.38832031 -133.73046875 1740.8046875 C-145.89568926 1760.51176681 -158.17139267 1780.14953806 -170.55712891 1799.71875 C-172.01248433 1802.01973833 -173.46559118 1804.32213105 -174.91796875 1806.625 C-191.45754263 1832.84761299 -208.11318344 1858.99947255 -225 1885 C-225.49000488 1885.75490723 -225.98000977 1886.50981445 -226.48486328 1887.28759766 C-229.75378261 1892.3232778 -233.02609255 1897.35674175 -236.30078125 1902.38867188 C-237.41311074 1904.09807938 -238.5251031 1905.80770632 -239.63671875 1907.51757812 C-250.62110878 1924.41162218 -261.69704658 1941.24521111 -272.78137207 1958.07377625 C-276.38072051 1963.53894732 -279.97662399 1969.00636942 -283.57049561 1974.47514343 C-307.52332901 2010.92079507 -307.52332901 2010.92079507 -319.5078125 2028.421875 C-324.94863104 2036.37051117 -330.32688924 2044.36135738 -335.71179199 2052.34793091 C-349.70709574 2073.10419212 -363.75265616 2093.82512991 -377.90234375 2114.4765625 C-379.98122149 2117.51074185 -382.05653103 2120.54731331 -384.12890625 2123.5859375 C-390.71973922 2133.24477683 -397.37108004 2142.8594851 -404.05786133 2152.45214844 C-408.23452019 2158.44842616 -412.38265953 2164.46285894 -416.5 2170.5 C-423.2470201 2180.38962561 -430.08790869 2190.21303579 -436.93408203 2200.03417969 C-439.00926131 2203.01329548 -441.08131783 2205.99455813 -443.15234375 2208.9765625 C-449.59145103 2218.24676855 -456.04342939 2227.50671981 -462.56347656 2236.72021484 C-466.39378739 2242.13418698 -470.19979897 2247.56485884 -474 2253 C-482.96634819 2265.8169422 -491.96696385 2278.60335905 -501.14477539 2291.27001953 C-504.8002566 2296.32105145 -508.41356491 2301.39975225 -512 2306.5 C-517.71773198 2314.62797303 -523.52824325 2322.68666362 -529.35888672 2330.73388672 C-532.07648173 2334.486448 -534.78794473 2338.24343419 -537.5 2342 C-538.58330362 2343.50002146 -539.66663696 2345.00002146 -540.75 2346.5 C-541.28625 2347.2425 -541.8225 2347.985 -542.375 2348.75 C-548.33333333 2357 -554.29166667 2365.25 -560.25 2373.5 C-560.78616943 2374.24241943 -561.32233887 2374.98483887 -561.87475586 2375.74975586 C-562.95878416 2377.2506555 -564.04293142 2378.75146922 -565.12719727 2380.25219727 C-567.82587655 2383.98773967 -570.52251312 2387.72472254 -573.21484375 2391.46484375 C-579.34661493 2399.97788529 -585.52869084 2408.45083641 -591.76489258 2416.88769531 C-595.75642211 2422.29396521 -599.70214284 2427.73124783 -603.625 2433.1875 C-608.17042418 2439.50728253 -612.79730966 2445.75760483 -617.48754883 2451.97045898 C-621.16211574 2456.85045209 -624.75039446 2461.78747317 -628.3125 2466.75 C-633.56122791 2474.05748598 -638.92400288 2481.27211067 -644.33642578 2488.45898438 C-648.65552294 2494.19703884 -652.9351826 2499.96230342 -657.1875 2505.75 C-661.911894 2512.17920109 -666.6721133 2518.57920945 -671.47045898 2524.95336914 C-675.26740171 2530.00449713 -679.01243353 2535.09234212 -682.75 2540.1875 C-688.42318222 2547.91563489 -694.21139146 2555.55002954 -700.03808594 2563.1628418 C-704.42004356 2568.89817538 -708.7351215 2574.67717501 -713 2580.5 C-718.585061 2588.12526593 -724.28881088 2595.65283255 -730.03466797 2603.1574707 C-734.46423345 2608.95380929 -738.81815557 2614.79953926 -743.125 2620.6875 C-748.21005699 2627.6363109 -753.43574432 2634.45694106 -758.75048828 2641.23120117 C-762.93471384 2646.58264231 -766.99184863 2652.01572085 -771 2657.5 C-776.24553939 2664.67643989 -781.62782436 2671.72908042 -787.10595703 2678.72924805 C-790.96210846 2683.65775924 -794.74897757 2688.63044403 -798.48828125 2693.6484375 C-803.89103785 2700.88075881 -809.3985622 2708.03510856 -814.87402344 2715.21240234 C-817.64080991 2718.84023514 -820.40499466 2722.47004587 -823.16918945 2726.09985352 C-833.21976948 2739.29678665 -843.28579843 2752.4815564 -853.40625 2765.625 C-856.44607633 2769.57677422 -859.47273515 2773.53860018 -862.5 2777.5 C-867.98559563 2784.6778328 -873.48796762 2791.84245061 -879 2799 C-880.24766396 2800.62151985 -881.49508752 2802.24322434 -882.74243164 2803.86499023 C-883.58136716 2804.95572042 -884.42039724 2806.04637788 -885.25952148 2807.13696289 C-887.29429649 2809.78157716 -889.32781303 2812.42713386 -891.359375 2815.07421875 C-896.8180518 2822.18298576 -902.31215481 2829.26343622 -907.81835938 2836.33544922 C-912.90460897 2842.87075302 -917.95892306 2849.42979639 -923 2856 C-931.56029249 2867.15691454 -940.19179077 2878.25747547 -948.83203125 2889.35253906 C-957.44092749 2900.40698713 -957.44092749 2900.40698713 -966 2911.5 C-974.53408275 2922.61252482 -983.14851322 2933.66302542 -991.81616211 2944.67163086 C-995.56247378 2949.43352129 -999.28297215 2954.21522981 -1003 2959 C-1007.58733249 2964.90507595 -1012.19057168 2970.79692783 -1016.81640625 2976.671875 C-1020.5625575 2981.43374656 -1024.28300839 2986.21534584 -1028 2991 C-1033.53445387 2998.12333177 -1039.09308187 3005.22696727 -1044.67333984 3012.31445312 C-1046.95086206 3015.20808827 -1049.22524007 3018.10419323 -1051.5 3021 C-1052.4166523 3022.16667796 -1053.33331895 3023.33334464 -1054.25 3024.5 C-1054.70375 3025.0775 -1055.1575 3025.655 -1055.625 3026.25 C-1071.66666667 3046.66666667 -1087.70833333 3067.08333333 -1103.75 3087.5 C-1104.20366943 3088.07741943 -1104.65733887 3088.65483887 -1105.12475586 3089.24975586 C-1106.04215009 3090.4173041 -1106.95963067 3091.58478449 -1107.87719727 3092.75219727 C-1110.15844245 3095.6548279 -1112.43821214 3098.55859274 -1114.71484375 3101.46484375 C-1119.94490507 3108.13768061 -1125.213503 3114.77754236 -1130.51708984 3121.39208984 C-1135.72411346 3127.89203106 -1140.86488913 3134.44320018 -1146 3141 C-1152.13292287 3148.83086259 -1158.29602425 3156.63495937 -1164.51928711 3164.39428711 C-1167.87086275 3168.57712711 -1171.1948238 3172.78042347 -1174.5 3177 C-1178.80425962 3182.49506344 -1183.15368786 3187.95227033 -1187.52172852 3193.39672852 C-1190.85477108 3197.55563869 -1194.15492348 3201.73868914 -1197.4375 3205.9375 C-1201.41929766 3211.02908557 -1205.47320971 3216.05692235 -1209.5625 3221.0625 C-1213.44975648 3225.82179182 -1217.27339695 3230.61374089 -1221 3235.5 C-1225.26207899 3241.08836614 -1229.66639299 3246.54628513 -1234.11328125 3251.98828125 C-1237.6233603 3256.28936403 -1241.08425676 3260.62369623 -1244.5 3265 C-1248.45913449 3270.07250515 -1252.49094716 3275.07983044 -1256.5625 3280.0625 C-1260.44981773 3284.82173946 -1264.27339891 3289.61374347 -1268 3294.5 C-1272.26207899 3300.08836614 -1276.66639299 3305.54628513 -1281.11328125 3310.98828125 C-1284.62336198 3315.28936608 -1288.08417075 3319.62376186 -1291.5 3324 C-1295.9818886 3329.74019254 -1300.55956778 3335.39693517 -1305.1640625 3341.0390625 C-1308.65530179 3345.32451737 -1312.09814072 3349.64333106 -1315.5 3354 C-1320.58597845 3360.51229417 -1325.79096139 3366.9236637 -1331.01171875 3373.328125 C-1333.35721533 3376.20612454 -1335.68601547 3379.09655836 -1338 3382 C-1340.85222552 3385.57879245 -1343.73352476 3389.13262718 -1346.625 3392.6796875 C-1351.29994058 3398.41514701 -1355.94547088 3404.16832802 -1360.5 3410 C-1365.58605119 3416.51223901 -1370.79095987 3422.92366183 -1376.01171875 3429.328125 C-1378.35721533 3432.20612454 -1380.68601547 3435.09655836 -1383 3438 C-1386.47275885 3442.35566365 -1389.98448297 3446.67885404 -1393.5 3451 C-1395.15835999 3453.04026794 -1396.81639271 3455.08080088 -1398.47412109 3457.12158203 C-1399.43765227 3458.30772745 -1400.40147987 3459.4936322 -1401.36572266 3460.67919922 C-1402.51719426 3462.09656837 -1403.66501503 3463.51690138 -1404.8125 3464.9375 C-1405.43769531 3465.70964844 -1406.06289063 3466.48179688 -1406.70703125 3467.27734375 C-1408.10004836 3468.77431265 -1408.10004836 3468.77431265 -1408 3470 C-930.16 3470 -452.32 3470 40 3470 C40 2800.76 40 2131.52 40 1442 C39.67 1442 39.34 1442 39 1442 Z " fill="#000000" transform="translate(11450,0)"/>
<path d="M0 0 C360.03 0 720.06 0 1091 0 C1091 1145.1 1091 2290.2 1091 3470 C1348.73 3470 1606.46 3470 1872 3470 C1872 3746.21 1872 4022.42 1872 4307 C1614.27 4307 1356.54 4307 1091 4307 C1091 4582.55 1091 4858.1 1091 5142 C744.17 5142 397.34 5142 40 5142 C40 4866.45 40 4590.9 40 4307 C-775.43 4307 -1590.86 4307 -2431 4307 C-2431 3462 -2431 3462 -2417 3447 C-2414.30508961 3443.95493791 -2414.30508961 3443.95493791 -2411.63671875 3440.88671875 C-2409.62126228 3438.56341213 -2407.56151538 3436.28251535 -2405.5 3434 C-2402.82951656 3431.04130249 -2400.17701942 3428.07073528 -2397.5625 3425.0625 C-2394.75177475 3421.83440488 -2391.884201 3418.66261557 -2389 3415.5 C-2384.01424271 3410.02764478 -2379.11572853 3404.49471106 -2374.32421875 3398.8515625 C-2368.77649277 3392.32773736 -2363.13604332 3385.93474326 -2357.28588867 3379.68041992 C-2354.2616298 3376.42668335 -2351.39999502 3373.09759081 -2348.625 3369.625 C-2344.39149739 3364.34466766 -2339.80394367 3359.46442375 -2335.15722656 3354.55175781 C-2330.97591081 3350.10812047 -2327.08080506 3345.51201229 -2323.2734375 3340.7421875 C-2320.62657893 3337.5495849 -2317.83434764 3334.52557647 -2315 3331.5 C-2311.37047617 3327.62529176 -2307.88251843 3323.71100009 -2304.5625 3319.5625 C-2301.05356678 3315.187478 -2297.34153921 3311.07980841 -2293.5 3307 C-2288.8533639 3302.06482764 -2284.48073751 3297.00524355 -2280.2421875 3291.7109375 C-2277.7609345 3288.71095565 -2275.15135693 3285.84846349 -2272.5 3283 C-2269.04835946 3279.29140465 -2265.73477706 3275.51493923 -2262.5625 3271.5625 C-2259.19653536 3267.37762447 -2255.66822171 3263.41687569 -2252 3259.5 C-2247.52084173 3254.71683601 -2243.31548578 3249.79185052 -2239.2109375 3244.6796875 C-2236.8906505 3241.86746685 -2234.46928866 3239.18202737 -2232 3236.5 C-2228.70668301 3232.92207537 -2225.55348679 3229.28460334 -2222.5 3225.5 C-2218.66280969 3220.74404581 -2214.60614899 3216.24495199 -2210.46875 3211.75 C-2208.05621896 3209.06262366 -2205.7674379 3206.31034556 -2203.5 3203.5 C-2199.66280969 3198.74404581 -2195.60614899 3194.24495199 -2191.46875 3189.75 C-2189.05621896 3187.06262366 -2186.7674379 3184.31034556 -2184.5 3181.5 C-2181.44651321 3177.71539666 -2178.29331699 3174.07792463 -2175 3170.5 C-2170.88621091 3166.0301488 -2167.02912703 3161.40955107 -2163.21484375 3156.68359375 C-2161.04367173 3154.05291443 -2158.79758643 3151.52057576 -2156.5 3149 C-2153.47717579 3145.68010514 -2150.57487839 3142.30235888 -2147.75 3138.8125 C-2142.53613562 3132.37451094 -2137.08958747 3126.14836434 -2131.65087891 3119.90087891 C-2124.75118267 3111.95633072 -2117.93468727 3103.93994734 -2111.1484375 3095.8984375 C-2107.74659391 3091.8709675 -2104.31382005 3087.87090781 -2100.875 3083.875 C-2097.38180518 3079.8137519 -2093.93551449 3075.72481221 -2090.5625 3071.5625 C-2086.41939009 3066.45692535 -2082.1176955 3061.50199947 -2077.79711914 3056.54711914 C-2074.63534162 3052.91262149 -2071.53149794 3049.24479157 -2068.5 3045.5 C-2064.92458474 3041.08331056 -2061.23400652 3036.78219615 -2057.5 3032.5 C-2053.00492302 3027.34424284 -2048.61376778 3022.12489122 -2044.30859375 3016.80859375 C-2041.58655909 3013.4970152 -2038.79860269 3010.24686941 -2036 3007 C-2032.44542508 3002.875357 -2028.93207702 2998.72792096 -2025.5 2994.5 C-2022.06791987 2990.2720752 -2018.55448829 2986.1247211 -2015 2982 C-2010.68065728 2976.98685227 -2006.44902723 2971.91462485 -2002.27734375 2966.77734375 C-1999.71795946 2963.65603633 -1997.11406209 2960.5754997 -1994.5 2957.5 C-1991.12716411 2953.53096457 -1987.78823355 2949.53982979 -1984.5 2945.5 C-1981.21176186 2941.46016457 -1977.87265239 2937.46919573 -1974.5 2933.5 C-1970.44987401 2928.7308879 -1966.45647887 2923.92087568 -1962.50390625 2919.0703125 C-1954.671033 2909.46557245 -1946.79551246 2899.89933639 -1938.76220703 2890.46142578 C-1935.45706789 2886.56805276 -1932.26470718 2882.59643365 -1929.09375 2878.59375 C-1926.61188737 2875.51920375 -1924.06144118 2872.50827521 -1921.5 2869.5 C-1917.56278119 2864.87407055 -1913.7140786 2860.19238735 -1909.9375 2855.43359375 C-1903.45615446 2847.29271014 -1896.78178554 2839.30340954 -1890.16479492 2831.27270508 C-1885.43023628 2825.52566053 -1880.71081214 2819.76653087 -1876 2814 C-1874.50014304 2812.16654964 -1873.0001406 2810.33321829 -1871.5 2808.5 C-1870.37851563 2807.12908203 -1870.37851563 2807.12908203 -1869.234375 2805.73046875 C-1867.78702949 2803.96177205 -1866.33914699 2802.19351457 -1864.890625 2800.42578125 C-1858.80302665 2792.99402341 -1852.7448411 2785.53856578 -1846.68945312 2778.08056641 C-1843.96041309 2774.71974572 -1841.23015975 2771.3599111 -1838.5 2768 C-1837.41666054 2766.66667165 -1836.33332721 2765.33333831 -1835.25 2764 C-1828.75 2755.99999999 -1828.75 2755.99999999 -1827.12451172 2753.99951172 C-1826.04265888 2752.66792549 -1824.96095282 2751.33622 -1823.87939453 2750.00439453 C-1821.14960892 2746.64333059 -1818.41719783 2743.28446381 -1815.6796875 2739.9296875 C-1810.58572346 2733.68220308 -1805.52013033 2727.41890332 -1800.5625 2721.0625 C-1795.34415352 2714.37613517 -1789.95442547 2707.83768564 -1784.55078125 2701.30078125 C-1776.63554346 2691.72418719 -1768.81027113 2682.08060473 -1761.16333008 2672.28833008 C-1757.12121573 2667.12409616 -1752.98225106 2662.04163158 -1748.8359375 2656.9609375 C-1744.88582549 2652.11222181 -1741.00719462 2647.21277125 -1737.15966797 2642.2824707 C-1733.70625289 2637.86894401 -1730.17503854 2633.52350154 -1726.625 2629.1875 C-1722.15826561 2623.72713027 -1717.81920416 2618.18793802 -1713.5625 2612.5625 C-1708.61458366 2606.02530278 -1703.4780269 2599.67766868 -1698.23291016 2593.37744141 C-1693.61041656 2587.80095745 -1689.1987037 2582.08656267 -1684.82861328 2576.3112793 C-1680.58065095 2570.71427572 -1676.18814134 2565.25013102 -1671.73852539 2559.81274414 C-1666.85746578 2553.8445428 -1662.08808896 2547.79413436 -1657.34277344 2541.71777344 C-1655.06766067 2538.80728372 -1652.7833163 2535.90405504 -1650.5 2533 C-1649.58329022 2531.83336721 -1648.66662352 2530.66670056 -1647.75 2529.5 C-1631.25000001 2508.50000001 -1631.25000001 2508.50000001 -1629.87573242 2506.75097656 C-1628.95656687 2505.58109984 -1628.03745905 2504.41117777 -1627.1184082 2503.24121094 C-1624.86543906 2500.37328843 -1622.61156277 2497.5060901 -1620.35546875 2494.640625 C-1613.46932252 2485.89140702 -1606.62901091 2477.10702728 -1599.79833984 2468.31445312 C-1596.86700637 2464.54184366 -1593.93340802 2460.77099645 -1591 2457 C-1589.83332206 2455.50000877 -1588.6666554 2454.00000876 -1587.5 2452.5 C-1566.49999998 2425.49999998 -1566.49999998 2425.49999998 -1564.74902344 2423.2487793 C-1563.58556688 2421.75288338 -1562.42215522 2420.25695255 -1561.25878906 2418.76098633 C-1558.29338002 2414.94790224 -1555.32712738 2411.13547936 -1552.359375 2407.32421875 C-1545.54462323 2398.57091414 -1538.7539704 2389.80028925 -1532 2381 C-1530.33390747 2378.83289153 -1528.66694801 2376.66645047 -1527 2374.5 C-1526.16665095 2373.41667876 -1525.33331759 2372.33334544 -1524.5 2371.25 C-1509.49999997 2351.74999996 -1509.49999997 2351.74999996 -1508.25073242 2350.12597656 C-1507.41492624 2349.03941221 -1506.57915165 2347.95282355 -1505.7434082 2346.86621094 C-1503.69816364 2344.20711452 -1501.65230009 2341.5485006 -1499.60546875 2338.890625 C-1493.27237327 2330.6647627 -1486.9636048 2322.42047125 -1480.66015625 2314.171875 C-1479.05534906 2312.0724096 -1477.44972084 2309.97357536 -1475.84375 2307.875 C-1472.56067457 2303.58472738 -1469.27987938 2299.29271634 -1466 2295 C-1465.37722168 2294.18515137 -1464.75444336 2293.37030273 -1464.11279297 2292.53076172 C-1456.19146663 2282.16299835 -1448.31550204 2271.76421866 -1440.5065918 2261.31152344 C-1436.38030161 2255.80255932 -1432.18225234 2250.35555029 -1427.9375 2244.9375 C-1422.62484783 2238.15307949 -1417.47547411 2231.26470954 -1412.38598633 2224.31176758 C-1404.7297166 2213.87024182 -1396.82934289 2203.61440483 -1388.95898438 2193.33398438 C-1381.31508748 2183.34488421 -1373.72813908 2173.32341909 -1366.29736328 2163.17456055 C-1361.85505306 2157.12173939 -1357.31607437 2151.14733864 -1352.75 2145.1875 C-1348.00495219 2138.99207908 -1343.34530779 2132.76192496 -1338.85961914 2126.37670898 C-1335.10258642 2121.06541608 -1331.14621107 2115.91192156 -1327.1875 2110.75 C-1322.1915293 2104.23473224 -1317.27371486 2097.67991168 -1312.5 2091 C-1307.72628066 2084.32008205 -1302.80830212 2077.7654023 -1297.8125 2071.25 C-1293.00767053 2064.98170191 -1288.27082131 2058.6869998 -1283.71704102 2052.23413086 C-1278.53049962 2044.89127816 -1273.15839475 2037.68417621 -1267.81445312 2030.45556641 C-1264.87205325 2026.47350802 -1261.9362252 2022.48661232 -1259 2018.5 C-1255.49112785 2013.73617273 -1251.98102195 2008.97328199 -1248.46484375 2004.21484375 C-1242.2259032 1995.76742867 -1236.02941003 1987.29241591 -1229.89428711 1978.76928711 C-1225.38568587 1972.5137479 -1220.81319395 1966.30681654 -1216.23046875 1960.10546875 C-1212.28584596 1954.76142324 -1208.38030944 1949.39089219 -1204.5 1944 C-1200.03979047 1937.80345586 -1195.53740365 1931.64023977 -1191 1925.5 C-1184.80974505 1917.12062325 -1178.69525542 1908.68892429 -1172.60888672 1900.23388672 C-1169.90987872 1896.48640216 -1167.20461116 1892.74344155 -1164.5 1889 C-1163.41663696 1887.50002146 -1162.33330362 1886.00002146 -1161.25 1884.5 C-1154.75 1875.50000001 -1154.75 1875.50000001 -1153.12426758 1873.24902344 C-1152.04332809 1871.75231299 -1150.96243599 1870.25556832 -1149.8815918 1868.75878906 C-1147.1370246 1864.95817363 -1144.39158034 1861.15819702 -1141.64453125 1857.359375 C-1136.34378189 1850.02749738 -1131.05321295 1842.68905364 -1125.8034668 1835.32055664 C-1122.4325072 1830.59364258 -1119.02977374 1825.89009337 -1115.625 1821.1875 C-1110.87306422 1814.62159342 -1106.17710907 1808.01901961 -1101.515625 1801.38867188 C-1097.92640655 1796.29141792 -1094.28594074 1791.23342315 -1090.625 1786.1875 C-1085.41362817 1779.00155563 -1080.30724732 1771.74722747 -1075.2331543 1764.46386719 C-1071.3585303 1758.91226336 -1067.42058329 1753.41168318 -1063.4375 1747.9375 C-1058.97411511 1741.8005151 -1054.63677076 1735.59108035 -1050.375 1729.3125 C-1046.11246359 1723.03333419 -1041.7471868 1716.85766362 -1037.22729492 1710.76171875 C-1031.59919084 1703.14847295 -1026.21702478 1695.36270563 -1020.80712891 1687.59375 C-1017.83582998 1683.32908102 -1014.85559759 1679.07067307 -1011.875 1674.8125 C-1011.00137817 1673.56400269 -1011.00137817 1673.56400269 -1010.11010742 1672.2902832 C-1006.41902743 1667.01812427 -1002.71477476 1661.7554847 -999 1656.5 C-988.92329139 1642.24167484 -978.93702542 1627.92040741 -968.97290039 1613.58325195 C-964.55829974 1607.23322023 -960.12775617 1600.89461153 -955.6875 1594.5625 C-951.19928383 1588.15995282 -946.7426403 1581.73739583 -942.32299805 1575.28735352 C-938.24314563 1569.33883253 -934.12277833 1563.41882588 -930 1557.5 C-924.06534369 1548.97826414 -918.1575966 1540.43905913 -912.28564453 1531.87402344 C-910.52217291 1529.30349397 -908.75472999 1526.7357046 -906.98754883 1524.16772461 C-901.92451729 1516.80950048 -896.87799426 1509.44008113 -891.83642578 1502.06713867 C-888.39802763 1497.03986865 -884.95258772 1492.01753393 -881.5 1487 C-871.06484802 1471.83069564 -860.69155851 1456.61962627 -850.34375 1441.390625 C-847.61738848 1437.37828942 -844.88854139 1433.36767464 -842.15625 1429.359375 C-831.8851585 1414.28574172 -821.67994112 1399.16802142 -811.48730469 1384.04125977 C-810.21549986 1382.15380518 -808.94368994 1380.26635402 -807.671875 1378.37890625 C-807.03610535 1377.43535782 -806.40033569 1376.49180939 -805.74530029 1375.51966858 C-801.40499954 1369.07991523 -797.05609531 1362.64603791 -792.703125 1356.21484375 C-777.23011321 1333.34468723 -761.95672315 1310.35093308 -746.79095459 1287.27603149 C-742.18233534 1280.26789637 -737.53874291 1273.28406318 -732.875 1266.3125 C-710.49500034 1232.83818697 -688.44391611 1199.135031 -666.52832031 1165.35498047 C-664.40025519 1162.07585649 -662.26963832 1158.7983939 -660.13891602 1155.52099609 C-659.0480756 1153.84305506 -657.95741744 1152.16499553 -656.86694336 1150.48681641 C-654.19916061 1146.3813663 -651.52949118 1142.27717037 -648.85546875 1138.17578125 C-642.11969752 1127.83877879 -635.44496714 1117.46420532 -628.80151367 1107.06762695 C-625.05153018 1101.20046246 -621.29008527 1095.34133455 -617.5 1089.5 C-606.70835748 1072.86023491 -596.06498022 1056.12421602 -585.42578125 1039.38671875 C-583.13496357 1035.78294313 -580.84050536 1032.18152686 -578.54296875 1028.58203125 C-571.79750447 1018.00908443 -565.10969473 1007.40222293 -558.47167969 996.76147461 C-554.60213097 990.55940871 -550.71866242 984.36657274 -546.8125 978.1875 C-546.32604004 977.41776855 -545.83958008 976.64803711 -545.33837891 975.85498047 C-542.94680646 972.07279146 -540.55144689 968.29304125 -538.15234375 964.515625 C-531.65421832 954.27192244 -525.27109259 943.96152877 -518.92724609 933.62158203 C-514.95566606 927.15531476 -510.94614467 920.71649374 -506.875 914.3125 C-501.95226018 906.56511454 -497.17125429 898.73707119 -492.41479492 890.88671875 C-488.23030801 883.99153365 -483.97708071 877.142715 -479.6875 870.3125 C-472.04999894 858.13964214 -464.59432407 845.86014796 -457.15722656 833.56445312 C-453.96503923 828.288021 -450.76268071 823.0177664 -447.56103516 817.74707031 C-446.49736388 815.99565944 -445.43415351 814.24396961 -444.37109375 812.4921875 C-441.20587667 807.27664721 -438.03914076 802.06206444 -434.86383057 796.85266113 C-426.58706632 783.27348133 -418.39389162 769.64893155 -410.29455566 755.96310425 C-404.71731983 746.54059592 -399.07828284 737.15919747 -393.375 727.8125 C-385.7489654 715.31079664 -378.32893638 702.694232 -370.9491272 690.04600525 C-367.81992283 684.68514764 -364.66321247 679.34083661 -361.5 674 C-350.38257821 655.20984357 -339.34146105 636.37654868 -328.45141602 617.45361328 C-324.34918022 610.32784757 -320.21495757 603.22159639 -316.0625 596.125 C-309.31531123 584.58413239 -302.67871128 572.98122615 -296.06037903 561.3662262 C-293.68631566 557.20066096 -291.30576394 553.03885517 -288.921875 548.87890625 C-281.32977546 535.62670023 -273.8059189 522.33861219 -266.359375 509.00390625 C-263.11571164 503.19842226 -259.84158309 497.41052879 -256.5625 491.625 C-249.94062889 479.93157246 -243.41781034 468.18389108 -236.90283203 456.43066406 C-235.02997868 453.05404933 -233.15424293 449.6790548 -231.27734375 446.3046875 C-219.07525979 424.3672568 -206.87630112 402.43063593 -195.00537109 380.31176758 C-191.38568411 373.5673009 -187.73733877 366.83955817 -184.0625 360.125 C-176.9574747 347.12852229 -169.97019979 334.06912461 -163 321 C-162.47672119 320.01885223 -162.47672119 320.01885223 -161.94287109 319.0178833 C-153.45719486 303.10338848 -145.01317532 287.16893808 -136.69140625 271.16796875 C-134.14371514 266.27010313 -131.57517541 261.38345876 -129 256.5 C-123.83110176 246.69221448 -118.69781925 236.86603316 -113.57861328 227.03222656 C-112.54368047 225.04431046 -111.50821748 223.05667027 -110.47216797 221.06933594 C-106.29583687 213.05597579 -102.14272295 205.03076741 -98 197 C-97.63424866 196.29147888 -97.26849731 195.58295776 -96.8916626 194.85296631 C-83.2339392 168.38853819 -69.84297387 141.79188696 -56.51794434 115.15882492 C-55.265072 112.65511947 -54.01151522 110.15175775 -52.7578125 107.64846802 C-44.09372495 90.34511823 -35.49537241 73.02134078 -27.20666504 55.53417969 C-23.99595799 48.79120768 -20.71115491 42.08366897 -17.43701172 35.37133789 C-16.23416654 32.90503523 -15.03302648 30.43790709 -13.83203125 27.97070312 C-13.03916203 26.34370149 -12.24619681 24.71674664 -11.453125 23.08984375 C-11.10815979 22.38117661 -10.76319458 21.67250946 -10.40777588 20.94236755 C-6.98791101 13.93586514 -3.4873467 6.97469339 0 0 Z M39 1442 C38.70456299 1442.5762915 38.40912598 1443.15258301 38.10473633 1443.74633789 C31.99166138 1455.64062509 25.70964634 1467.4036765 19.07177734 1479.01342773 C14.72414134 1486.64655901 10.56017531 1494.36923346 6.4375 1502.125 C1.1324134 1512.09772726 -4.33238802 1521.95952708 -9.98046875 1531.7421875 C-13.33913283 1537.56534743 -16.60435304 1543.43960672 -19.875 1549.3125 C-25.60643669 1559.58401618 -31.4876025 1569.76007416 -37.4375 1579.90625 C-40.50569462 1585.14182272 -43.53508187 1590.39888966 -46.55639648 1595.66162109 C-52.66949937 1606.30738546 -58.88962323 1616.87913499 -65.23193359 1627.38989258 C-69.70634092 1634.81452877 -74.10695634 1642.27912216 -78.47695923 1649.76541138 C-85.62135886 1662.00414493 -92.89870257 1674.15372527 -100.30712891 1686.23486328 C-102.59450941 1689.97107204 -104.8680512 1693.71562203 -107.14208984 1697.45996094 C-115.37227437 1711.00764705 -123.67592316 1724.50984661 -132 1738 C-132.85658203 1739.38832031 -132.85658203 1739.38832031 -133.73046875 1740.8046875 C-145.89568926 1760.51176681 -158.17139267 1780.14953806 -170.55712891 1799.71875 C-172.01248433 1802.01973833 -173.46559118 1804.32213105 -174.91796875 1806.625 C-191.45754263 1832.84761299 -208.11318344 1858.99947255 -225 1885 C-225.49000488 1885.75490723 -225.98000977 1886.50981445 -226.48486328 1887.28759766 C-229.75378261 1892.3232778 -233.02609255 1897.35674175 -236.30078125 1902.38867188 C-237.41311074 1904.09807938 -238.5251031 1905.80770632 -239.63671875 1907.51757812 C-250.62110878 1924.41162218 -261.69704658 1941.24521111 -272.78137207 1958.07377625 C-276.38072051 1963.53894732 -279.97662399 1969.00636942 -283.57049561 1974.47514343 C-307.52332901 2010.92079507 -307.52332901 2010.92079507 -319.5078125 2028.421875 C-324.94863104 2036.37051117 -330.32688924 2044.36135738 -335.71179199 2052.34793091 C-349.70709574 2073.10419212 -363.75265616 2093.82512991 -377.90234375 2114.4765625 C-379.98122149 2117.51074185 -382.05653103 2120.54731331 -384.12890625 2123.5859375 C-390.71973922 2133.24477683 -397.37108004 2142.8594851 -404.05786133 2152.45214844 C-408.23452019 2158.44842616 -412.38265953 2164.46285894 -416.5 2170.5 C-423.2470201 2180.38962561 -430.08790869 2190.21303579 -436.93408203 2200.03417969 C-439.00926131 2203.01329548 -441.08131783 2205.99455813 -443.15234375 2208.9765625 C-449.59145103 2218.24676855 -456.04342939 2227.50671981 -462.56347656 2236.72021484 C-466.39378739 2242.13418698 -470.19979897 2247.56485884 -474 2253 C-482.96634819 2265.8169422 -491.96696385 2278.60335905 -501.14477539 2291.27001953 C-504.8002566 2296.32105145 -508.41356491 2301.39975225 -512 2306.5 C-517.71773198 2314.62797303 -523.52824325 2322.68666362 -529.35888672 2330.73388672 C-532.07648173 2334.486448 -534.78794473 2338.24343419 -537.5 2342 C-538.58330362 2343.50002146 -539.66663696 2345.00002146 -540.75 2346.5 C-541.28625 2347.2425 -541.8225 2347.985 -542.375 2348.75 C-548.33333333 2357 -554.29166667 2365.25 -560.25 2373.5 C-560.78616943 2374.24241943 -561.32233887 2374.98483887 -561.87475586 2375.74975586 C-562.95878416 2377.2506555 -564.04293142 2378.75146922 -565.12719727 2380.25219727 C-567.82587655 2383.98773967 -570.52251312 2387.72472254 -573.21484375 2391.46484375 C-579.34661493 2399.97788529 -585.52869084 2408.45083641 -591.76489258 2416.88769531 C-595.75642211 2422.29396521 -599.70214284 2427.73124783 -603.625 2433.1875 C-608.17042418 2439.50728253 -612.79730966 2445.75760483 -617.48754883 2451.97045898 C-621.16211574 2456.85045209 -624.75039446 2461.78747317 -628.3125 2466.75 C-633.56122791 2474.05748598 -638.92400288 2481.27211067 -644.33642578 2488.45898438 C-648.65552294 2494.19703884 -652.9351826 2499.96230342 -657.1875 2505.75 C-661.911894 2512.17920109 -666.6721133 2518.57920945 -671.47045898 2524.95336914 C-675.26740171 2530.00449713 -679.01243353 2535.09234212 -682.75 2540.1875 C-688.42318222 2547.91563489 -694.21139146 2555.55002954 -700.03808594 2563.1628418 C-704.42004356 2568.89817538 -708.7351215 2574.67717501 -713 2580.5 C-718.585061 2588.12526593 -724.28881088 2595.65283255 -730.03466797 2603.1574707 C-734.46423345 2608.95380929 -738.81815557 2614.79953926 -743.125 2620.6875 C-748.21005699 2627.6363109 -753.43574432 2634.45694106 -758.75048828 2641.23120117 C-762.93471384 2646.58264231 -766.99184863 2652.01572085 -771 2657.5 C-776.24553939 2664.67643989 -781.62782436 2671.72908042 -787.10595703 2678.72924805 C-790.96210846 2683.65775924 -794.74897757 2688.63044403 -798.48828125 2693.6484375 C-803.89103785 2700.88075881 -809.3985622 2708.03510856 -814.87402344 2715.21240234 C-817.64080991 2718.84023514 -820.40499466 2722.47004587 -823.16918945 2726.09985352 C-833.21976948 2739.29678665 -843.28579843 2752.4815564 -853.40625 2765.625 C-856.44607633 2769.57677422 -859.47273515 2773.53860018 -862.5 2777.5 C-867.98559563 2784.6778328 -873.48796762 2791.84245061 -879 2799 C-880.24766396 2800.62151985 -881.49508752 2802.24322434 -882.74243164 2803.86499023 C-883.58136716 2804.95572042 -884.42039724 2806.04637788 -885.25952148 2807.13696289 C-887.29429649 2809.78157716 -889.32781303 2812.42713386 -891.359375 2815.07421875 C-896.8180518 2822.18298576 -902.31215481 2829.26343622 -907.81835938 2836.33544922 C-912.90460897 2842.87075302 -917.95892306 2849.42979639 -923 2856 C-931.56029249 2867.15691454 -940.19179077 2878.25747547 -948.83203125 2889.35253906 C-957.44092749 2900.40698713 -957.44092749 2900.40698713 -966 2911.5 C-974.53408275 2922.61252482 -983.14851322 2933.66302542 -991.81616211 2944.67163086 C-995.56247378 2949.43352129 -999.28297215 2954.21522981 -1003 2959 C-1007.58733249 2964.90507595 -1012.19057168 2970.79692783 -1016.81640625 2976.671875 C-1020.5625575 2981.43374656 -1024.28300839 2986.21534584 -1028 2991 C-1033.53445387 2998.12333177 -1039.09308187 3005.22696727 -1044.67333984 3012.31445312 C-1046.95086206 3015.20808827 -1049.22524007 3018.10419323 -1051.5 3021 C-1052.4166523 3022.16667796 -1053.33331895 3023.33334464 -1054.25 3024.5 C-1054.70375 3025.0775 -1055.1575 3025.655 -1055.625 3026.25 C-1071.66666667 3046.66666667 -1087.70833333 3067.08333333 -1103.75 3087.5 C-1104.20366943 3088.07741943 -1104.65733887 3088.65483887 -1105.12475586 3089.24975586 C-1106.04215009 3090.4173041 -1106.95963067 3091.58478449 -1107.87719727 3092.75219727 C-1110.15844245 3095.6548279 -1112.43821214 3098.55859274 -1114.71484375 3101.46484375 C-1119.94490507 3108.13768061 -1125.213503 3114.77754236 -1130.51708984 3121.39208984 C-1135.72411346 3127.89203106 -1140.86488913 3134.44320018 -1146 3141 C-1152.13292287 3148.83086259 -1158.29602425 3156.63495937 -1164.51928711 3164.39428711 C-1167.87086275 3168.57712711 -1171.1948238 3172.78042347 -1174.5 3177 C-1178.80425962 3182.49506344 -1183.15368786 3187.95227033 -1187.52172852 3193.39672852 C-1190.85477108 3197.55563869 -1194.15492348 3201.73868914 -1197.4375 3205.9375 C-1201.41929766 3211.02908557 -1205.47320971 3216.05692235 -1209.5625 3221.0625 C-1213.44975648 3225.82179182 -1217.27339695 3230.61374089 -1221 3235.5 C-1225.26207899 3241.08836614 -1229.66639299 3246.54628513 -1234.11328125 3251.98828125 C-1237.6233603 3256.28936403 -1241.08425676 3260.62369623 -1244.5 3265 C-1248.45913449 3270.07250515 -1252.49094716 3275.07983044 -1256.5625 3280.0625 C-1260.44981773 3284.82173946 -1264.27339891 3289.61374347 -1268 3294.5 C-1272.26207899 3300.08836614 -1276.66639299 3305.54628513 -1281.11328125 3310.98828125 C-1284.62336198 3315.28936608 -1288.08417075 3319.62376186 -1291.5 3324 C-1295.9818886 3329.74019254 -1300.55956778 3335.39693517 -1305.1640625 3341.0390625 C-1308.65530179 3345.32451737 -1312.09814072 3349.64333106 -1315.5 3354 C-1320.58597845 3360.51229417 -1325.79096139 3366.9236637 -1331.01171875 3373.328125 C-1333.35721533 3376.20612454 -1335.68601547 3379.09655836 -1338 3382 C-1340.85222552 3385.57879245 -1343.73352476 3389.13262718 -1346.625 3392.6796875 C-1351.29994058 3398.41514701 -1355.94547088 3404.16832802 -1360.5 3410 C-1365.58605119 3416.51223901 -1370.79095987 3422.92366183 -1376.01171875 3429.328125 C-1378.35721533 3432.20612454 -1380.68601547 3435.09655836 -1383 3438 C-1386.47275885 3442.35566365 -1389.98448297 3446.67885404 -1393.5 3451 C-1395.15835999 3453.04026794 -1396.81639271 3455.08080088 -1398.47412109 3457.12158203 C-1399.43765227 3458.30772745 -1400.40147987 3459.4936322 -1401.36572266 3460.67919922 C-1402.51719426 3462.09656837 -1403.66501503 3463.51690138 -1404.8125 3464.9375 C-1405.43769531 3465.70964844 -1406.06289062 3466.48179688 -1406.70703125 3467.27734375 C-1408.10004836 3468.77431265 -1408.10004836 3468.77431265 -1408 3470 C-930.16 3470 -452.32 3470 40 3470 C40 2800.76 40 2131.52 40 1442 C39.67 1442 39.34 1442 39 1442 Z " fill="#000000" transform="translate(2431,0)"/>
</svg>
